<svg width="399" height="71" viewBox="0 0 399 71" fill="none" xmlns="http://www.w3.org/2000/svg">
<path d="M234.984 11.8621V59.1215C234.984 65.6724 229.675 70.9837 223.122 70.9837H175.862C169.311 70.9837 164 65.675 164 59.1215V11.8621C164 5.31125 169.311 0 175.862 0H223.122C229.675 0 234.984 5.30869 234.984 11.8621ZM222.074 16.6545C222.074 14.5868 220.397 12.9101 218.329 12.9101H180.652C178.584 12.9101 176.908 14.5868 176.908 16.6545V54.3368C176.908 56.4046 178.584 58.0813 180.652 58.0813H218.332C220.399 58.0813 222.076 56.4046 222.076 54.3368L222.074 16.6545ZM189.81 27.9722C189.81 26.7786 190.771 25.8125 191.957 25.8125H207.019C208.208 25.8125 209.166 26.7812 209.166 27.9722V43.0114C209.166 44.205 208.21 45.1712 207.019 45.1712H191.957C190.768 45.1712 189.81 44.2025 189.81 43.0114V27.9722Z" fill="black"/>
<path d="M397.883 24.1282L390.764 15.9164C390.252 15.3217 390.295 14.4647 390.782 13.8437C391.225 13.284 391.486 12.4183 391.486 11.3338C391.486 8.80647 390.052 6.04297 388.287 5.1597C386.514 4.28517 385.089 5.61445 385.089 8.15058C385.089 9.35742 385.419 10.608 385.949 11.6924C386.436 12.6719 385.853 13.835 384.776 13.9574L379.456 14.5696C379.204 14.5958 378.943 14.5696 378.709 14.4734L367.809 10.1707C366.784 9.76845 366.479 8.43917 367.244 7.63461C368.009 6.83004 368.487 5.74563 368.487 4.57377C368.487 2.04639 366.314 0 363.637 0C360.96 0 358.787 2.04639 358.787 4.57377C358.787 5.75438 359.256 6.83004 360.039 7.63461C360.821 8.43917 360.499 9.76845 359.474 10.1707L348.574 14.4734C348.339 14.5696 348.079 14.6046 347.827 14.5696L342.516 13.9487C341.438 13.8262 340.856 12.6631 341.342 11.6837C341.873 10.608 342.203 9.34868 342.203 8.14183C342.203 5.60571 340.777 4.27643 339.004 5.15095C337.24 6.03422 335.806 8.79772 335.806 11.3251C335.806 12.4095 336.066 13.2753 336.51 13.835C336.997 14.4559 337.04 15.3129 336.527 15.9076L329.382 24.1282C329.13 24.4167 329 24.784 329 25.1601V58.4096C329 59.3628 329.843 60.0974 330.782 59.9662L337.779 58.9867C338.292 58.9168 338.804 59.1004 339.152 59.494L347.479 68.7464C347.913 69.2362 348.609 69.3936 349.209 69.1575L363.055 63.6829C363.42 63.5343 363.828 63.5343 364.202 63.6829L378.057 69.1575C378.665 69.3936 379.352 69.2362 379.787 68.7464L388.113 59.494C388.461 59.1092 388.974 58.9168 389.487 58.9867L396.484 59.9662C397.422 60.0974 398.265 59.3628 398.265 58.4096V25.1688C398.265 24.784 398.126 24.4167 397.883 24.1369V24.1282ZM331.103 27.1015L333.372 24.4255C334.319 23.3061 336.127 23.9795 336.127 25.4487V28.7806C336.127 29.1567 335.997 29.5152 335.754 29.8038L333.485 32.4886C332.538 33.608 330.73 32.9346 330.73 31.4654V28.1335C330.73 27.7574 330.86 27.3989 331.103 27.1103V27.1015ZM334.824 53.6871L332.555 54.0719C331.599 54.2293 330.73 53.4947 330.73 52.5153V47.5042C330.73 46.7346 331.286 46.0787 332.033 45.9476L334.302 45.5628C335.258 45.4054 336.127 46.14 336.127 47.1194V52.1305C336.127 52.9 335.571 53.5559 334.824 53.6871ZM333.598 38.0331L333.772 37.832C334.519 36.9662 335.875 37.1848 336.371 38.208C336.379 38.2343 336.397 38.2605 336.405 38.278C336.892 39.2662 336.327 40.4381 335.241 40.5867L334.989 40.6217C333.555 40.8228 332.642 39.1263 333.598 38.0244V38.0331ZM369.765 15.7764L378.674 19.4582C378.935 19.5631 379.213 19.5981 379.491 19.5631L384.419 18.8548C385.367 18.7148 386.21 19.4582 386.21 20.4114V25.4225C386.21 26.2095 385.636 26.8654 384.871 26.9791L379.5 27.7662C379.222 27.8099 378.943 27.7662 378.683 27.6612L368.583 23.4898C367.992 23.2449 367.609 22.6677 367.609 22.0293V17.2369C367.609 16.1175 368.739 15.3567 369.774 15.7764H369.765ZM342.855 18.8548L347.783 19.5631C348.061 19.6069 348.339 19.5631 348.6 19.4582L357.509 15.7764C358.544 15.3479 359.674 16.1088 359.674 17.2369V22.0293C359.674 22.6677 359.291 23.2449 358.7 23.4898L348.6 27.6612C348.339 27.7662 348.061 27.8012 347.783 27.7662L342.412 26.9791C341.638 26.8654 341.073 26.2008 341.073 25.4225V20.4114C341.073 19.4494 341.916 18.7148 342.864 18.8548H342.855ZM358.7 59.1529L349.226 63.1145C348.609 63.3681 347.905 63.2107 347.462 62.7122L341.464 55.9959C341.203 55.7073 341.064 55.3312 341.064 54.9464V52.3841C341.064 50.9411 342.837 50.259 343.794 51.3346L347.462 55.4449C347.905 55.9434 348.609 56.1008 349.217 55.8472L357.501 52.4191C358.535 51.9905 359.665 52.7514 359.665 53.8795V57.7012C359.665 58.3396 359.282 58.908 358.7 59.1529ZM385.793 55.9959L379.795 62.6685C379.352 63.1582 378.648 63.3244 378.039 63.0708L368.565 59.1529C367.974 58.908 367.592 58.3308 367.592 57.6924V53.8795C367.592 52.7601 368.722 51.9993 369.756 52.4191L378.039 55.8472C378.648 56.1008 379.361 55.9346 379.795 55.4449L383.463 51.3346C384.419 50.259 386.192 50.9411 386.192 52.3841V54.9377C386.192 55.3312 386.045 55.7073 385.784 55.9959H385.793ZM378.066 50.3989L367.8 46.3498C366.766 45.9388 366.471 44.6095 367.235 43.8137C368 43.0179 368.478 41.9335 368.478 40.7616C368.478 38.2343 366.305 36.1791 363.628 36.1791C360.951 36.1791 358.778 38.2343 358.778 40.7616C358.778 41.9422 359.248 43.0092 360.021 43.8137C360.795 44.6183 360.491 45.9476 359.456 46.3498L349.2 50.3989C348.6 50.635 347.913 50.4776 347.479 49.9966L340.786 42.6856C340.221 42.0647 340.169 41.0765 340.769 40.4905C341.334 39.9396 341.681 38.9601 341.681 37.692C341.681 36.7213 341.482 35.7331 341.134 34.8236C340.717 33.7392 341.638 32.6023 342.785 32.7335L347.818 33.3194C348.07 33.3457 348.331 33.3194 348.574 33.2232L363.063 27.4951C363.428 27.3464 363.837 27.3464 364.211 27.4951L378.709 33.2232C378.943 33.3194 379.204 33.3544 379.456 33.3194L384.489 32.7422C385.636 32.6111 386.557 33.7479 386.14 34.8323C385.793 35.7331 385.593 36.7301 385.593 37.692C385.593 38.9601 385.94 39.9396 386.505 40.4905C387.105 41.0765 387.053 42.0647 386.488 42.6856L379.795 49.9966C379.361 50.4776 378.674 50.635 378.074 50.3989H378.066ZM393.494 37.8232L393.667 38.0244C394.615 39.1263 393.702 40.8228 392.277 40.6217L392.025 40.5867C390.938 40.4381 390.373 39.2574 390.86 38.278C390.869 38.2517 390.886 38.2255 390.895 38.208C391.39 37.1761 392.746 36.9662 393.494 37.832V37.8232ZM394.658 54.0632L392.442 53.6871C391.686 53.5559 391.138 52.9 391.138 52.1305V47.1194C391.138 46.1487 392.007 45.4054 392.963 45.5628L395.18 45.9388C395.936 46.07 396.484 46.7259 396.484 47.4955V52.5065C396.484 53.4772 395.614 54.2206 394.658 54.0632ZM393.728 32.4099L391.512 29.7863C391.268 29.4977 391.138 29.1392 391.138 28.7631V25.4399C391.138 23.9707 392.955 23.3061 393.893 24.4167L395.626 27.0403C395.87 27.3289 396 27.6875 396 28.0635V31.3867C396 32.8559 394.667 33.5206 393.728 32.4099Z" fill="black"/>
<path d="M4.2234 17.4429H2.8172V2.49549H0V0H7.0406V2.49549H4.2234V17.4429Z" fill="black"/>
<path d="M9.40281 17.4429H7.99662V0H9.40281V6.85621H14.3341V0H15.7451V17.4429H14.3341V9.3517H9.40281V17.4429Z" fill="black"/>
<path d="M18.4541 17.4429H17.0479V13.7124H17.751V9.97344H18.4541V6.23447H19.1572V2.49549H19.8651V0H21.9792V2.49549H22.6823V6.23447H23.3854V9.97344H24.0885V13.7124H24.7964V17.4429H23.3854V13.7124H18.4541V17.4429ZM19.1572 11.2169H22.6823V9.97344H21.9792V6.23447H21.2713V3.73898H20.5682V6.23447H19.8651V9.97344H19.1572V11.2169Z" fill="black"/>
<path d="M27.5053 17.4429H26.0991V0H28.2084V2.49549H28.9163V4.99098H29.6194V7.47795H30.3225V9.97344H31.0305V12.4604H31.7336V0H33.1397V17.4429H31.0305V14.9559H30.3225V12.4604H29.6194V9.97344H28.9163V7.47795H28.2084V4.99098H27.5053V17.4429Z" fill="black"/>
<path d="M35.8631 17.4429H34.4569V0H35.8631V6.23447H36.5662V4.99098H37.2741V3.73898H37.9772V2.49549H38.6803V1.252H39.3883V0H41.146V1.252H40.4429V2.49549H39.7398V3.73898H39.0319V4.99098H38.3288V6.23447H37.6257V7.47795H36.9226V9.97344H37.6257V11.2169H38.3288V12.4604H39.0319V13.7124H39.7398V14.9559H40.4429V16.1994H41.146V17.4429H39.3883V16.1994H38.6803V14.9559H37.9772V13.7124H37.2741V12.4604H36.5662V11.2169H35.8631V17.4429Z" fill="black"/>
<path d="M49.0344 17.4429H47.6282V9.97344H46.9203V7.47795H46.2172V4.99098H45.5141V2.49549H44.811V0H46.2172V2.49549H46.9203V4.99098H47.6282V7.47795H49.0344V4.99098H49.7423V2.49549H50.4454V0H51.8516V2.49549H51.1485V4.99098H50.4454V7.47795H49.7423V9.97344H49.0344V17.4429Z" fill="black"/>
<path d="M58.7983 17.4429H54.5701V16.1994H53.867V14.9559H53.1639V13.7124H52.4608V3.73898H53.1639V2.49549H53.867V1.252H54.5701V0H58.7983V1.252H59.5014V2.49549H60.2094V3.73898H60.9125V13.7124H60.2094V14.9559H59.5014V16.1994H58.7983V17.4429ZM55.278 14.9559H58.0953V13.7124H58.7983V12.4604H59.5014V4.99098H58.7983V3.73898H58.0953V2.49549H55.278V3.73898H54.5701V4.99098H53.867V12.4604H54.5701V13.7124H55.278V14.9559Z" fill="black"/>
<path d="M67.8592 17.4429H63.631V16.1994H62.9279V14.9559H62.2248V0H63.631V13.7124H64.3341V14.9559H67.1562V13.7124H67.8592V0H69.2654V14.9559H68.5623V16.1994H67.8592V17.4429Z" fill="black"/>
<path d="M4.22346 34.7168H2.81726V19.7694H6.10352e-05V17.2739H7.04066V19.7694H4.22346V34.7168Z" fill="black"/>
<path d="M9.40287 34.7168H7.99668V17.2739H9.40287V24.1301H14.3342V17.2739H15.7452V34.7168H14.3342V26.6256H9.40287V34.7168Z" fill="black"/>
<path d="M18.4541 34.7168H17.0479V30.9863H17.751V27.2474H18.4541V23.5084H19.1572V19.7694H19.8651V17.2739H21.9793V19.7694H22.6824V23.5084H23.3854V27.2474H24.0885V30.9863H24.7965V34.7168H23.3854V30.9863H18.4541V34.7168ZM19.1572 28.4909H22.6824V27.2474H21.9793V23.5084H21.2713V21.0129H20.5682V23.5084H19.8651V27.2474H19.1572V28.4909Z" fill="black"/>
<path d="M27.5054 34.7168H26.0992V17.2739H28.2085V19.7694H28.9164V22.2649H29.6195V24.7519H30.3226V27.2474H31.0305V29.7343H31.7336V17.2739H33.1398V34.7168H31.0305V32.2298H30.3226V29.7343H29.6195V27.2474H28.9164V24.7519H28.2085V22.2649H27.5054V34.7168Z" fill="black"/>
<path d="M35.8632 34.7168H34.457V17.2739H35.8632V23.5084H36.5663V22.2649H37.2742V21.0129H37.9773V19.7694H38.6804V18.5259H39.3883V17.2739H41.1461V18.5259H40.443V19.7694H39.7399V21.0129H39.032V22.2649H38.3289V23.5084H37.6258V24.7519H36.9227V27.2474H37.6258V28.4909H38.3289V29.7343H39.032V30.9863H39.7399V32.2298H40.443V33.4733H41.1461V34.7168H39.3883V33.4733H38.6804V32.2298H37.9773V30.9863H37.2742V29.7343H36.5663V28.4909H35.8632V34.7168Z" fill="black"/>
<path d="M49.0344 34.7168H47.6282V27.2474H46.9203V24.7519H46.2172V22.2649H45.5141V19.7694H44.811V17.2739H46.2172V19.7694H46.9203V22.2649H47.6282V24.7519H49.0344V22.2649H49.7423V19.7694H50.4454V17.2739H51.8516V19.7694H51.1485V22.2649H50.4454V24.7519H49.7423V27.2474H49.0344V34.7168Z" fill="black"/>
<path d="M58.7984 34.7168H54.5702V33.4733H53.8671V32.2298H53.164V30.9863H52.4609V21.0129H53.164V19.7694H53.8671V18.5259H54.5702V17.2739H58.7984V18.5259H59.5015V19.7694H60.2094V21.0129H60.9125V30.9863H60.2094V32.2298H59.5015V33.4733H58.7984V34.7168ZM55.2781 32.2298H58.0953V30.9863H58.7984V29.7343H59.5015V22.2649H58.7984V21.0129H58.0953V19.7694H55.2781V21.0129H54.5702V22.2649H53.8671V29.7343H54.5702V30.9863H55.2781V32.2298Z" fill="black"/>
<path d="M67.8593 34.7168H63.6311V33.4733H62.928V32.2298H62.2249V17.2739H63.6311V30.9863H64.3342V32.2298H67.1562V30.9863H67.8593V17.2739H69.2655V32.2298H68.5624V33.4733H67.8593V34.7168Z" fill="black"/>
<path d="M4.22346 51.9907H2.81726V37.0433H6.10352e-05V34.5479H7.04066V37.0433H4.22346V51.9907Z" fill="black"/>
<path d="M9.40287 51.9907H7.99668V34.5479H9.40287V41.4041H14.3342V34.5479H15.7452V51.9907H14.3342V43.8996H9.40287V51.9907Z" fill="black"/>
<path d="M18.4541 51.9907H17.0479V48.2603H17.751V44.5213H18.4541V40.7823H19.1572V37.0433H19.8651V34.5479H21.9793V37.0433H22.6824V40.7823H23.3854V44.5213H24.0885V48.2603H24.7965V51.9907H23.3854V48.2603H18.4541V51.9907ZM19.1572 45.7648H22.6824V44.5213H21.9793V40.7823H21.2713V38.2868H20.5682V40.7823H19.8651V44.5213H19.1572V45.7648Z" fill="black"/>
<path d="M27.5054 51.9907H26.0992V34.5479H28.2085V37.0433H28.9164V39.5388H29.6195V42.0258H30.3226V44.5213H31.0305V47.0083H31.7336V34.5479H33.1398V51.9907H31.0305V49.5038H30.3226V47.0083H29.6195V44.5213H28.9164V42.0258H28.2085V39.5388H27.5054V51.9907Z" fill="black"/>
<path d="M35.8632 51.9907H34.457V34.5479H35.8632V40.7823H36.5663V39.5388H37.2742V38.2868H37.9773V37.0433H38.6804V35.7999H39.3883V34.5479H41.1461V35.7999H40.443V37.0433H39.7399V38.2868H39.032V39.5388H38.3289V40.7823H37.6258V42.0258H36.9227V44.5213H37.6258V45.7648H38.3289V47.0083H39.032V48.2603H39.7399V49.5038H40.443V50.7472H41.1461V51.9907H39.3883V50.7472H38.6804V49.5038H37.9773V48.2603H37.2742V47.0083H36.5663V45.7648H35.8632V51.9907Z" fill="black"/>
<path d="M49.0344 51.9907H47.6282V44.5213H46.9203V42.0258H46.2172V39.5388H45.5141V37.0433H44.811V34.5479H46.2172V37.0433H46.9203V39.5388H47.6282V42.0258H49.0344V39.5388H49.7423V37.0433H50.4454V34.5479H51.8516V37.0433H51.1485V39.5388H50.4454V42.0258H49.7423V44.5213H49.0344V51.9907Z" fill="black"/>
<path d="M58.7984 51.9907H54.5702V50.7472H53.8671V49.5038H53.164V48.2603H52.4609V38.2868H53.164V37.0433H53.8671V35.7999H54.5702V34.5479H58.7984V35.7999H59.5015V37.0433H60.2094V38.2868H60.9125V48.2603H60.2094V49.5038H59.5015V50.7472H58.7984V51.9907ZM55.2781 49.5038H58.0953V48.2603H58.7984V47.0083H59.5015V39.5388H58.7984V38.2868H58.0953V37.0433H55.2781V38.2868H54.5702V39.5388H53.8671V47.0083H54.5702V48.2603H55.2781V49.5038Z" fill="black"/>
<path d="M67.8593 51.9907H63.6311V50.7472H62.928V49.5038H62.2249V34.5479H63.6311V48.2603H64.3342V49.5038H67.1562V48.2603H67.8593V34.5479H69.2655V49.5038H68.5624V50.7472H67.8593V51.9907Z" fill="black"/>
<path d="M4.22346 69.2647H2.81726V54.3173H6.10352e-05V51.8218H7.04066V54.3173H4.22346V69.2647Z" fill="black"/>
<path d="M9.40287 69.2647H7.99668V51.8218H9.40287V58.678H14.3342V51.8218H15.7452V69.2647H14.3342V61.1735H9.40287V69.2647Z" fill="black"/>
<path d="M18.4541 69.2647H17.0479V65.5342H17.751V61.7952H18.4541V58.0562H19.1572V54.3173H19.8651V51.8218H21.9793V54.3173H22.6824V58.0562H23.3854V61.7952H24.0885V65.5342H24.7965V69.2647H23.3854V65.5342H18.4541V69.2647ZM19.1572 63.0387H22.6824V61.7952H21.9793V58.0562H21.2713V55.5608H20.5682V58.0562H19.8651V61.7952H19.1572V63.0387Z" fill="black"/>
<path d="M27.5054 69.2647H26.0992V51.8218H28.2085V54.3173H28.9164V56.8128H29.6195V59.2997H30.3226V61.7952H31.0305V64.2822H31.7336V51.8218H33.1398V69.2647H31.0305V66.7777H30.3226V64.2822H29.6195V61.7952H28.9164V59.2997H28.2085V56.8128H27.5054V69.2647Z" fill="black"/>
<path d="M35.8632 69.2647H34.457V51.8218H35.8632V58.0562H36.5663V56.8128H37.2742V55.5608H37.9773V54.3173H38.6804V53.0738H39.3883V51.8218H41.1461V53.0738H40.443V54.3173H39.7399V55.5608H39.032V56.8128H38.3289V58.0562H37.6258V59.2997H36.9227V61.7952H37.6258V63.0387H38.3289V64.2822H39.032V65.5342H39.7399V66.7777H40.443V68.0212H41.1461V69.2647H39.3883V68.0212H38.6804V66.7777H37.9773V65.5342H37.2742V64.2822H36.5663V63.0387H35.8632V69.2647Z" fill="black"/>
<path d="M49.0344 69.2647H47.6282V61.7952H46.9203V59.2997H46.2172V56.8128H45.5141V54.3173H44.811V51.8218H46.2172V54.3173H46.9203V56.8128H47.6282V59.2997H49.0344V56.8128H49.7423V54.3173H50.4454V51.8218H51.8516V54.3173H51.1485V56.8128H50.4454V59.2997H49.7423V61.7952H49.0344V69.2647Z" fill="black"/>
<path d="M58.7984 69.2647H54.5702V68.0212H53.8671V66.7777H53.164V65.5342H52.4609V55.5608H53.164V54.3173H53.8671V53.0738H54.5702V51.8218H58.7984V53.0738H59.5015V54.3173H60.2094V55.5608H60.9125V65.5342H60.2094V66.7777H59.5015V68.0212H58.7984V69.2647ZM55.2781 66.7777H58.0953V65.5342H58.7984V64.2822H59.5015V56.8128H58.7984V55.5608H58.0953V54.3173H55.2781V55.5608H54.5702V56.8128H53.8671V64.2822H54.5702V65.5342H55.2781V66.7777Z" fill="black"/>
<path d="M67.8593 69.2647H63.6311V68.0212H62.928V66.7777H62.2249V51.8218H63.6311V65.5342H64.3342V66.7777H67.1562V65.5342H67.8593V51.8218H69.2655V66.7777H68.5624V68.0212H67.8593V69.2647Z" fill="black"/>
<path d="M133.141 45.8205H133.104V45.2125H133.187C133.27 43.8213 133.242 42.4301 132.763 41.1033C132.662 40.8177 132.809 40.6058 133.03 40.5137C132.478 39.7398 131.446 38.8922 130.7 38.4039C129.916 37.8787 129.308 37.6668 128.479 37.2891C126.425 36.3493 124.527 35.299 122.261 34.8107C121.091 34.5619 119.782 34.4053 118.594 34.1842C117.59 33.9999 116.586 33.9078 115.572 34.0828C115.369 34.046 115.25 33.613 115.121 33.5116C115.047 33.4563 114.918 33.4471 114.835 33.3918C114.605 33.2537 114.623 33.1155 114.273 33.1339C114.153 33.1339 113.711 33.2352 113.582 33.2813C112.845 33.5301 112.145 34.1289 111.463 34.3961C111.058 34.5527 110.514 34.6909 110.091 34.8291C110.026 34.8475 109.934 34.8015 109.814 34.8383C109.75 34.8568 109.252 35.2529 109.197 35.3082C108.902 35.6215 108.893 36.1743 108.745 36.3585C108.635 36.4875 108.359 36.6257 108.239 36.7731C107.575 37.5655 106.912 38.1459 106.166 38.8829C105.06 39.9701 104.029 41.1955 103.199 42.4669C102.693 43.2408 101.946 44.3464 101.983 45.2493C102.002 45.7468 102.297 46.1061 102.315 46.401C102.315 46.5115 102.25 46.6221 102.25 46.7326C102.25 48.5477 102.223 49.6717 102.693 51.4498C102.803 51.8644 102.794 52.3619 103.181 52.6476C103.024 52.7305 102.951 52.666 103.015 52.8963C103.052 53.0345 103.181 53.1635 103.227 53.3017C103.31 53.5228 103.319 53.7624 103.439 53.9743C103.678 54.4165 103.678 54.223 103.844 54.8034C104.148 55.8538 105.926 57.7701 106.774 58.5625C107.631 59.3732 108.441 60.0182 109.565 60.5249C109.823 60.6447 110.146 60.6354 110.321 60.8566C110.616 61.3725 110.579 61.9622 110.689 62.5057C110.818 63.1138 110.938 63.9891 111.39 64.3852C111.021 66.4766 113.048 67.1768 114.863 67.444C116.208 67.6467 118.88 67.9047 120.179 67.7204C120.28 67.702 121.017 67.398 121.146 67.3335C121.33 67.2413 121.911 66.5319 122.012 66.3292C122.132 66.1081 122.132 65.8686 122.233 65.6659C122.353 65.4171 122.703 65.0947 122.878 64.7906C123.108 64.3944 123.329 63.9246 123.274 63.4731C123.44 63.4639 123.707 63.4547 123.854 63.381C123.947 63.3349 123.937 63.2151 124.02 63.1691C124.094 63.123 124.232 63.1414 124.269 63.1046C124.287 63.0862 124.472 62.6624 124.481 62.6439C124.509 62.4228 124.278 62.3675 124.287 62.174C124.564 62.0911 125.356 61.824 125.117 61.5199L125.163 61.4831C125.531 61.6765 125.522 61.4646 125.688 61.3725C125.983 61.1974 126.425 61.05 126.729 60.8842C127.475 60.4696 128.138 60.0182 128.792 59.5298C129.668 58.8849 130.34 57.162 130.571 56.167C130.985 54.3612 131.685 52.5831 132.256 50.8049C132.487 50.0863 132.763 49.2663 132.975 48.4739C133.012 47.6079 133.104 46.7326 133.178 45.8574L133.141 45.8205ZM128.037 42.4853C128.074 42.1905 128.304 41.9141 128.221 41.5732C128.544 41.5456 128.94 41.4811 129.235 41.3521C129.474 41.2508 129.926 40.7348 129.962 41.1678C130.027 41.868 129.723 42.6788 129.529 43.3698C129.474 43.5725 129.483 43.812 129.41 44.0332C129.272 44.457 128.949 44.9176 128.857 45.3783C128.396 45.6823 128.092 44.5583 128.037 44.2911C127.945 43.7936 127.963 42.9828 128.037 42.4761V42.4853ZM121.883 37.3351C123.302 37.6299 125.19 38.3578 126.489 38.9843C126.609 39.0396 127.226 39.3528 127.254 39.3897C127.411 39.6016 126.803 40.4308 126.692 40.698C126.508 41.131 126.388 41.7114 126.277 42.1721L125.356 41.177C125.163 41.0204 124.168 40.569 123.928 40.5229C123.578 40.4584 122.648 40.4031 122.334 40.4953C122.233 40.5229 121.339 40.9191 121.266 40.9651C121.054 41.0941 120.833 41.4995 120.612 41.6469L121.109 40.1267C121.164 39.1317 121.183 38.4039 120.639 37.5378C120.519 37.3535 120.289 37.2522 120.188 37.0495C120.722 37.243 121.33 37.2154 121.874 37.3259L121.883 37.3351ZM126.922 46.2536L126.001 46.4286L126.416 45.3875L126.627 45.6271L126.922 46.2628V46.2536ZM124.619 43.6554C124.287 43.6554 124.343 43.4619 124.435 43.2224H124.527L124.619 43.6554ZM122.684 42.9552L122.666 43.3698L121.68 44.0792C121.551 43.9502 122.408 42.946 122.694 42.946L122.684 42.9552ZM118.032 40.0899L117.728 40.9283L117.332 41.6377C117 41.6009 116.678 41.7391 116.383 41.7391C116.235 41.7391 116.226 41.7575 116.245 41.6101C116.788 41.0481 117.313 40.44 118.041 40.0899H118.032ZM109.464 38.1827C109.584 38.063 109.648 37.9063 109.777 37.7866C110.312 37.2983 111.546 37.1693 112.292 37.0311C112.946 36.9113 113.407 36.8652 114.07 36.7915C114.789 36.7178 115.498 36.5612 116.235 36.6165C115.895 36.9666 115.48 37.0587 115.13 37.4457C114.54 38.109 113.693 39.1133 113.361 39.9425C113.103 40.5874 112.993 41.3337 112.781 42.0062C112.394 43.2685 111.565 44.8255 112.366 46.1154C112.394 46.1614 112.486 46.1614 112.541 46.2351C112.578 46.2812 112.56 46.3918 112.633 46.4747C112.836 46.7142 113.214 46.7879 113.462 46.9077C113.545 46.9445 113.591 47.0459 113.72 47.1012C114.282 47.3407 115.287 47.2302 115.839 46.963C117.111 46.3365 118.06 45.1203 119.045 44.1714L118.741 45.1019C118.668 45.6086 118.566 46.1246 118.631 46.6405C118.658 46.8248 118.981 47.4789 118.898 47.5618C118.465 47.4881 117.931 47.571 117.47 47.6079C115.25 47.7553 113.029 47.9027 110.754 47.6448C110.56 47.6263 110.339 47.5066 110.173 47.4973C109.934 47.4789 109.611 47.5803 109.326 47.4789C109.704 47.1196 110.008 46.7234 110.339 46.3273C111.021 45.4981 111.859 44.5583 112.154 43.508C112.541 42.1168 112.394 41.3705 111.159 40.4953C110.864 40.2834 110.256 39.8872 109.943 39.7306C109.464 39.5002 108.801 39.5187 108.312 39.2699C108.69 38.9014 109.086 38.5513 109.464 38.1827ZM108.543 43.0473L108.349 42.7894C108.423 42.5775 108.672 42.4761 108.865 42.3563C108.948 42.4485 108.626 43.0473 108.543 43.0473ZM105.825 45.0466L106.433 45.3046L107.207 45.1756C106.884 45.5441 106.451 45.581 106.037 45.323C105.917 45.2493 105.788 45.2217 105.825 45.0466ZM119.939 64.4682C119.884 64.6708 119.985 64.892 119.838 65.067C119.746 65.1776 119.294 65.2789 119.137 65.2789C118.382 65.2973 117.599 65.2052 116.834 65.1868L113.812 64.8275C113.591 64.7538 113.582 64.2194 113.472 64.0167C113.794 63.8232 114.181 63.9154 114.531 63.8877C116.07 63.7495 117.691 63.5929 119.22 63.5376C119.672 63.5192 120.123 63.5376 120.556 63.6297C120.602 63.6574 119.967 64.3392 119.93 64.4682H119.939ZM124.389 61.9806L124.343 61.9345L124.481 61.8055L124.527 61.8516L124.389 61.9806ZM127.844 56.6369C127.742 57.0054 127.18 57.5582 126.876 57.807C125.577 58.8573 122.436 59.8984 121.689 61.0777C121.616 61.1974 121.588 61.4462 121.496 61.5015C121.459 61.5291 120.971 61.612 120.879 61.6213C120.547 61.6397 119.976 61.5476 119.635 61.5844C119.303 61.6213 119.018 61.8977 118.594 61.7042L118.529 61.87L118.271 61.8055L118.216 61.9714C117.903 61.9069 117.885 61.6581 117.47 61.6673C116.622 61.695 115.72 61.9437 114.89 62.0174C114.54 62.0451 114.172 61.87 113.969 62.3215C113.803 62.0082 113.177 62.2662 113.048 62.0635C112.827 61.7318 112.845 60.6447 112.615 60.2116C112.504 60.0089 112.329 60.0089 112.228 59.8892C112.136 59.7694 112.099 59.5391 111.961 59.4009C111.325 58.7559 110.173 58.498 109.39 58.1386C108.957 57.9452 108.745 57.6135 108.405 57.3371C107.861 56.8949 107.299 56.4803 106.838 55.9459L109.142 53.9006C109.354 54.5086 109.787 55.1259 110.293 55.5497C110.385 55.6234 110.726 55.8998 110.8 55.9367C110.929 56.0012 110.892 55.9827 111.049 56.0749C111.629 56.4342 111.869 56.5263 112.55 56.683C112.55 56.683 112.449 56.5171 112.458 56.5079H112.735V56.683C112.679 56.683 112.578 56.7014 112.55 56.683C112.56 56.683 112.532 56.7843 112.689 56.7751C112.79 56.7751 112.974 56.729 113.048 56.683C113.177 56.6092 112.946 56.3052 113.472 56.4158L113.333 56.6737C113.416 56.554 113.582 56.7106 113.647 56.6737C113.665 56.6553 113.693 56.5263 113.748 56.4618C114.227 55.9183 114.761 55.43 115.287 54.9324C115.618 54.9232 116.18 54.6008 116.457 54.6837C116.613 54.7297 116.586 54.914 116.659 55.0154C117.111 55.6511 117.332 56.425 117.848 57.0238C118.069 57.2818 118.833 57.9544 119.137 58.0649C119.432 58.1755 120.105 58.3229 120.381 58.1939C121.643 57.3739 122.823 56.4066 124.131 55.6511C124.591 55.3839 125.08 55.2457 125.494 54.9416C125.559 54.9416 126.148 55.7801 126.323 55.8998C126.554 56.0565 127.318 56.4434 127.595 56.5355C127.733 56.5816 127.908 56.425 127.844 56.6369ZM110.662 52.2514C110.717 52.2514 110.717 52.3343 110.662 52.3343C110.606 52.3343 110.606 52.2514 110.662 52.2514ZM128.737 53.403C128.599 53.8268 128.47 54.2507 128.396 54.6837C127.77 54.5178 127.973 53.9374 127.797 53.4675C127.586 52.8871 126.6 52.2145 125.955 52.2514C125.448 52.279 125.209 52.4817 124.803 52.6383C124.72 52.666 124.619 52.6199 124.527 52.6383C124.241 52.7213 124.131 53.0806 123.79 53.0345L123.882 53.3846L123.652 53.2096C123.2 53.486 122.638 53.7163 122.196 53.9927C121.487 54.4257 120.722 55.0522 120.04 55.5589C119.957 55.6234 119.672 55.8353 119.598 55.8261C119.524 55.7708 119.478 55.7063 119.442 55.6234C119.073 54.9324 118.695 54.0756 118.281 53.4123C118.087 53.099 117.424 52.4817 117.065 52.3804C116.908 52.3343 116.586 52.4264 116.42 52.4356C116.42 52.4909 116.42 52.5554 116.42 52.6107H116.328C116.328 52.5554 116.318 52.4909 116.328 52.4356C116.014 52.4356 115.968 52.2974 115.6 52.4817C115.158 52.6936 114.651 52.7765 114.181 53.0529C113.794 53.274 112.919 53.9927 112.652 54.3151C112.587 54.3889 112.449 54.6929 112.421 54.6837C112.329 54.656 111.491 54.1677 111.445 54.1032C111.03 53.5412 111.297 52.9792 111.067 52.4817C110.966 52.2698 110.91 52.5001 110.781 51.9658C110.735 51.7447 110.201 51.3761 109.98 51.3393C109.915 51.3301 109.556 51.3669 109.482 51.3853C109.4 51.4038 109.446 51.542 109.363 51.5604C109.031 51.6341 108.488 51.7999 108.22 52.0395C108.128 52.1224 108.101 52.2974 107.999 52.4356C107.76 52.7397 106.884 53.4767 106.525 53.8268C106.304 54.0295 106.065 54.3151 105.788 54.4349C105.65 54.4073 105.208 53.2833 105.116 53.0714C104.784 52.3343 104.581 51.8644 104.379 51.0721C104.148 50.1415 103.946 49.2386 103.992 48.2713C104.25 48.2068 104.333 48.4832 104.425 48.5292C105.678 49.2755 108.534 49.6809 110.044 49.8836C112.486 50.2153 114.596 50.1692 117.028 50.0678C118.723 49.9941 120.059 49.9296 121.754 49.6717C124.011 49.3308 126.747 49.1189 128.866 48.391C129.41 48.2068 129.935 47.9212 130.478 47.7369L130.506 48.3634C129.778 49.9941 129.29 51.6986 128.746 53.3938L128.737 53.403ZM151.124 34.8383C151.051 32.0467 149.936 25.8923 147.762 23.9391C147.144 23.3863 146.711 23.46 146.536 22.4926C146.463 22.1056 146.536 21.8845 146.536 21.5528C146.536 18.5954 147.015 15.5918 147.089 12.6897C147.107 11.8697 147.117 10.9852 147.089 10.1652C147.043 8.71876 146.73 7.32756 146.665 5.8258C146.647 5.45727 146.739 4.95054 146.721 4.60965C146.693 4.14899 146.536 3.61462 146.518 3.14474L145.928 2.56431L145.615 2.73015C145.597 2.54588 145.606 2.02073 145.385 1.94702C145.099 1.8641 145.173 2.09443 145.145 2.10365H145.025C144.694 1.89174 144.491 1.61534 144.141 1.38501C144.095 1.35737 144.003 1.41265 143.975 1.39423C143.957 1.38501 143.957 1.28367 143.892 1.24681C143.413 0.961202 142.593 0.758511 142.077 0.81379L142.013 0.657165C141.626 0.657165 141.23 0.804577 140.898 0.988842C140.659 1.12704 140.373 1.34816 140.17 1.48636C140.097 1.53242 139.922 1.48636 139.765 1.5877C139.636 1.67062 139.71 1.80882 139.682 1.85489C139.617 1.93781 139.479 1.94702 139.415 2.02994C139.323 2.1405 139.313 2.38926 139.194 2.51824V2.59195C139.571 2.70251 139.332 3.10789 139 2.89599C139.129 3.21845 138.844 3.23688 138.816 3.30137C138.632 3.77124 138.816 4.35168 138.862 4.84919C138.982 6.12984 139.111 7.48418 139.231 8.75561C139.415 10.672 139.295 12.7818 139.332 14.7534C139.332 15.0022 139.148 15.251 139.461 15.4444C138.982 15.6287 139.249 15.8682 139.249 16.2091C139.249 18.623 139.378 21.2764 137.996 23.3494C137.185 24.5563 137.047 25.1644 136.725 26.5003C136.393 27.8915 136.052 29.2551 135.877 30.6463C135.794 31.3004 135.813 31.7703 135.693 32.3876C135.407 33.8341 135.251 35.2621 135.223 36.7178C135.205 37.7405 135.223 38.7355 135.131 39.7582C135.103 40.0622 134.827 49.598 134.504 49.4966C134.504 49.6164 134.504 49.7362 134.504 49.8283C134.449 52.1408 134.633 54.6192 134.67 56.9594C134.698 58.7652 134.541 60.8289 134.67 62.5979C134.725 63.3718 135.039 64.9841 135.591 65.5553C135.739 65.7027 135.932 65.7027 136.034 65.7949C136.577 66.2739 137.37 66.707 138.116 67.0018C139.489 67.5454 141.34 67.4717 142.833 67.4625C143.026 67.4625 143.312 67.4532 143.247 67.2506H143.339L143.395 67.4256C144.132 67.3888 144.869 67.2782 145.606 67.1676C146.085 67.0939 146.241 67.2321 146.702 66.9005C147.301 66.4766 147.725 65.7212 148.02 65.1039C149.374 62.257 150.277 60.4512 150.065 57.2173C149.954 55.6419 150.452 53.5597 150.231 51.9934C150.166 51.542 150.212 51.7447 150.258 51.3208C150.341 50.4548 150.258 49.3216 150.258 48.4555C150.258 48.0501 150.433 47.3868 150.516 46.9722C150.194 46.9261 150.461 46.7787 150.498 46.5207C150.544 46.2351 150.581 45.8758 150.608 45.5902C150.857 43.2592 151.004 40.8362 151.069 38.5513C151.106 37.3075 151.189 36.0453 151.161 34.8199L151.124 34.8383ZM146.748 9.34526C146.803 9.34526 146.803 9.42818 146.748 9.42818C146.693 9.42818 146.693 9.34526 146.748 9.34526ZM139.931 55.9827C139.875 55.9827 139.875 55.8998 139.931 55.8998C139.986 55.8998 139.986 55.9827 139.931 55.9827ZM140.023 57.807C139.968 57.807 139.968 57.7241 140.023 57.7241C140.078 57.7241 140.078 57.807 140.023 57.807ZM141.128 67.3611C141.073 67.3611 141.073 67.2782 141.128 67.2782C141.184 67.2782 141.184 67.3611 141.128 67.3611ZM141.294 4.27797C141.267 4.25955 141.267 4.16741 141.202 4.13056C140.972 3.99236 140.695 3.8818 140.548 3.65147C140.631 3.44878 140.898 2.86835 141.138 2.83149C141.23 2.81307 141.322 2.94205 141.451 2.96969C141.663 3.00654 142.096 2.82228 142.354 2.88677C142.501 2.92362 142.934 3.08946 143.081 3.15396C143.275 3.23688 143.441 3.37507 143.643 3.44878C143.69 3.59619 143.68 3.71596 143.561 3.82652C143.174 4.19505 142.547 4.39775 142.04 4.56358C141.838 4.39775 141.451 4.37932 141.285 4.27797H141.294ZM143.293 32.277V32.4521H143.201V32.277H143.293ZM142.05 6.38781C141.994 6.38781 141.994 6.30489 142.05 6.30489C142.105 6.30489 142.105 6.38781 142.05 6.38781ZM146.195 58.8481C146.14 58.8481 146.14 58.7651 146.195 58.7651C146.251 58.7651 146.251 58.8481 146.195 58.8481ZM148.462 36.9205C148.434 38.6526 148.342 40.3663 148.185 42.1352C148.066 43.5264 148.001 44.9176 147.9 46.2904C147.789 47.8106 147.559 49.1004 147.587 50.6391C147.623 52.9332 147.522 55.2825 147.531 57.5951C147.531 57.9083 147.752 58.24 147.384 58.498C146.886 58.2953 146.545 58.5256 146.094 58.5809C145.882 58.6085 145.67 58.5717 145.468 58.5993C144.509 58.7283 143.542 58.9863 142.556 58.9402L142.179 56.296C142.418 53.0806 142.05 49.7177 142.372 46.4931C142.575 44.4938 142.787 42.3932 143.312 40.4216C143.708 38.9382 144.27 37.5194 144.648 36.0361C144.804 35.4372 145.127 34.3224 145.173 33.7696C145.182 33.6222 145.099 33.4748 145.127 33.3274C145.578 33.4471 146.02 33.5761 146.49 33.6498C146.721 33.6867 147.587 33.7235 147.688 33.788C147.716 33.8064 147.716 33.8986 147.771 33.9354C148.001 34.0736 148.195 33.9078 148.443 33.9354C148.443 34.9397 148.462 35.9255 148.443 36.9297L148.462 36.9205ZM150.802 39.1409C150.747 39.1409 150.747 39.058 150.802 39.058C150.857 39.058 150.857 39.1409 150.802 39.1409ZM117.59 52.4264C117.562 52.4264 117.525 52.4264 117.498 52.4264C117.498 52.3988 117.498 52.3435 117.544 52.3435C117.599 52.3619 117.581 52.3896 117.59 52.4264ZM94.2814 51.2103C94.2814 51.1826 94.2814 51.155 94.2814 51.1274V51.2103ZM94.2814 51.2103C94.2906 51.3024 94.3735 51.413 94.3735 51.5972C94.3735 51.8644 94.2814 52.3067 94.3183 52.5094C94.3551 52.712 94.3183 52.6199 94.4196 52.6844C94.8158 52.6107 95.8199 52.15 95.7555 52.7765H95.8476L96.0318 52.6015L96.4004 53.2556L99.0444 54.0664C101.854 55.3102 103.66 57.1897 104.848 59.88C105.281 60.8658 105.337 61.7042 105.337 62.7176C105.337 63.7311 105.226 64.1365 105.005 64.6708C104.581 65.7027 103.273 66.9005 102.287 67.4901C101.707 67.8402 101.329 68.0521 100.675 68.0982C100.583 68.0982 99.8459 68.6418 99.3853 68.6694C98.9247 68.697 98.1231 69.0656 97.5427 69.1024C96.9623 69.1393 96.7228 68.9826 96.17 69.0564C95.2303 69.1945 94.3828 69.1945 93.4062 69.1024C91.4992 68.9274 89.113 67.8771 87.381 67.0479C85.8609 66.32 85.2253 65.4724 84.4698 64.0628C84.0368 63.2612 83.3643 61.8608 83.0971 61.0224C82.8299 60.184 83.051 60.1748 82.9497 59.8523C82.7562 59.2074 82.9036 59.0968 82.8668 58.4519C82.8299 57.807 82.6733 57.6688 83.0142 57.0238C83.4656 56.1486 84.7554 54.6008 85.6398 54.1125C86.5243 53.6242 86.0728 54.0203 86.165 53.9558C86.8836 53.4307 87.5192 53.0898 88.4774 52.9608C89.4355 52.8318 88.7077 53.0069 88.7722 52.9792C88.9012 52.9239 89.0117 52.6752 89.2697 52.5831C89.5276 52.4909 90.3752 52.3527 90.6608 52.3251C91.232 52.279 91.8032 52.408 92.3652 52.4172C92.3559 52.1961 92.4481 51.9934 92.4573 51.7723C92.531 50.6851 92.3652 49.5611 92.3928 48.4832C92.3928 48.0778 92.5402 47.571 92.5586 47.1657C92.6047 46.2351 92.4941 45.2677 92.5586 44.2911C92.6231 43.3145 92.7337 42.2089 92.66 41.3337C92.6231 40.8638 92.2178 41.0665 91.8308 41.0296L92.0151 40.8546C91.8216 40.7809 91.6926 40.9928 91.5913 41.0112C91.2873 41.0665 89.7487 40.8177 89.3434 40.7256C85.4279 39.8964 83.2814 35.8979 82.7654 32.4337C82.7286 32.2126 82.6549 31.9638 82.8023 31.7703L82.6365 31.6966C82.3693 29.3472 82.443 27.0071 82.3877 24.6577C82.3693 23.7732 82.3417 22.9072 82.443 22.0595C82.6088 20.6776 82.7378 19.2127 82.7378 17.8122C82.7378 17.5635 82.8299 17.3147 82.8023 17.0107C82.747 16.4947 82.4154 16.3842 82.2403 15.9788C81.5125 14.2836 82.6088 12.1185 83.2629 10.5061C83.3458 10.3127 83.3551 10.0823 83.438 9.88884C83.9263 8.75561 86.6717 5.50334 87.8601 5.03346C88.3852 4.83077 89.0854 4.14899 89.675 3.78046C90.0251 3.56855 91.1767 3.06182 91.3149 2.80385C91.4531 2.54588 91.4255 2.29712 91.8308 1.98387C92.8442 1.20075 96.1977 0.233355 97.5612 0.0583035C98.8786 -0.107535 100.362 0.122796 101.698 0.224142C102.075 0.251782 102.462 0.178076 102.84 0.325488V0.574246C102.96 0.546606 103.457 0.316275 103.522 0.325488C103.614 0.334701 103.715 0.454473 103.835 0.4729C104.286 0.555819 104.766 0.44526 105.06 0.878283H104.876C104.904 1.27445 105.309 1.32973 105.429 0.961202L105.558 0.933563C105.862 0.998055 106.055 1.27445 106.267 1.39423C106.645 1.61534 107.41 1.90095 107.704 2.16814C107.999 2.43532 108.635 3.15396 108.792 3.36586C109.805 4.76628 109.418 6.50758 108.847 8.00934C108.276 9.5111 108.055 9.39133 108.11 10.0086C108.165 10.6259 108.322 11.5104 108.285 12.2566C108.193 14.1269 108.303 16.117 108.303 17.9965C108.294 22.2254 108.395 27.1268 107.004 31.1991C106.58 32.4337 105.991 33.7604 104.95 34.6817C103.42 36.0268 101.891 37.3996 100.288 38.6618C98.5561 40.0254 97.2295 40.4861 94.9724 40.8638C94.7881 40.8914 94.567 40.8177 94.4196 40.9559C94.3367 41.0757 94.3735 41.8312 94.3735 42.0523C94.3735 43.1763 94.438 44.3003 94.3735 45.4244C94.2722 47.2854 94.4841 49.2202 94.2906 51.1181H94.1064V51.1642V51.2103H94.2906H94.2814ZM98.2429 2.1405H98.0587V2.22342H98.2429V2.1405ZM107.271 5.26379C107.244 4.61886 106.903 4.39775 106.378 4.06607C105.779 3.68832 104.793 3.10789 104.139 2.87756C103.485 2.64723 102.462 2.64723 101.606 2.57352C100.657 2.4906 99.763 2.4169 98.8417 2.36162C97.9205 2.30634 97.5704 2.2142 97.4322 2.4169C97.294 2.61959 97.469 2.61959 97.3585 2.66565C96.8518 2.84992 96.5938 2.6288 96.1792 2.66565C95.7647 2.70251 95.0461 3.01576 94.7421 3.14474C92.3283 4.13056 89.7303 5.54019 87.8325 7.14329C87.5837 7.3552 87.464 7.58553 87.3442 7.68688C87.2244 7.78822 87.1047 7.74216 87.0217 7.81586C86.7914 8.00934 85.8517 9.41897 85.6306 9.75986C84.9949 10.7641 84.35 12.3948 84.1013 13.5281C83.8526 14.6613 83.871 14.2283 83.9631 14.6521C84.5159 14.6521 84.4145 15.3062 84.5159 15.6932C85.0963 15.9327 85.6306 15.8314 86.211 15.8775C86.9757 15.942 87.3626 16.0157 88.1365 15.8314C89.8409 15.4444 91.5544 15.1588 93.2127 14.7442C94.0142 14.5415 94.8987 14.5139 95.691 14.2099L95.7831 14.3941C95.9121 14.2559 95.9213 14.0901 96.1516 14.0717C96.7044 14.4125 96.603 14.0809 96.8149 13.9519C97.0268 13.8229 97.7731 13.6939 98.0679 13.611C98.3627 13.5281 98.2613 13.3346 98.4824 13.2793C98.7035 13.224 98.7128 13.3346 98.851 13.2885C98.9891 13.2425 99.4037 12.8739 99.6156 12.791C99.8275 12.7081 100.021 12.7357 100.159 12.6805C101.311 12.2198 104.544 10.6904 105.208 9.85199C105.263 9.7875 105.235 9.65851 105.318 9.56638C105.401 9.47425 105.521 9.47425 105.576 9.41897C105.742 9.26234 105.53 8.43315 105.521 8.18439C105.512 7.93563 105.668 7.82508 105.512 7.50261C105.355 7.18015 105.014 7.38284 104.895 6.85768C104.775 6.33253 104.895 6.3141 104.895 6.27725C104.913 6.20354 105.005 6.13905 105.033 6.06534C105.134 5.6876 105.134 5.39278 105.475 5.08874C105.816 4.77549 106.092 4.72942 106.534 4.86762C106.977 5.00582 106.986 5.1993 107.271 5.26379ZM94.3735 36.4414V38.6158C94.6223 38.6895 94.7973 38.5052 94.9908 38.4591C95.5159 38.3486 95.6265 38.4591 96.1516 38.2472C96.8518 37.9616 97.1834 37.9708 97.7915 37.5378C98.6022 36.9482 99.6432 36.423 100.325 35.6675C100.859 35.0779 101.182 34.912 101.725 34.4237C102.269 33.9354 102.057 33.9446 102.214 33.7972C102.582 33.4379 103.153 33.051 103.531 32.7101C104.452 31.8809 104.719 30.5173 105.097 29.3841C105.475 28.2509 105.143 29.1261 105.162 28.7576C105.18 28.3891 105.309 28.214 105.346 27.9652C105.622 26.012 105.761 24.0035 105.807 22.0688C105.88 19.1758 105.733 16.1907 105.807 13.2885C105.816 12.9108 106.074 12.4962 105.77 12.1185C104.425 13.0582 102.923 13.7768 101.394 14.4218C98.9431 15.4536 96.557 16.1815 93.9313 16.679C93.397 16.7804 92.6139 16.9554 92.1348 16.808L92.1809 16.9738C92.1256 17.0383 91.3057 17.1397 91.1491 17.1765C89.8593 17.4806 88.0812 17.9504 86.7822 17.8767C86.6717 17.8767 86.5795 17.9412 86.4782 17.9412V17.6833C86.2294 17.6003 86.3492 17.8307 86.2387 17.8583C85.6214 17.9965 85.1147 17.932 84.5527 17.6833C84.5527 18.448 84.5711 19.2219 84.5343 19.9774C84.4974 20.7328 84.3593 21.4423 84.2856 22.1609C84.1197 23.6258 84.3869 25.2658 84.3777 26.7583C84.3777 26.9886 84.2671 27.3387 84.2856 27.5322C84.3224 27.9652 84.5251 28.518 84.5343 29.0248C84.5711 30.7108 84.6725 32.4337 85.2253 34.0368C85.6767 35.3543 86.6072 37.2061 87.7864 38.0445C88.6893 38.6895 90.2278 38.6618 91.3241 38.8C91.5636 38.8277 91.84 38.9659 92.0703 38.9659C92.3007 38.9659 92.4573 38.8369 92.6692 38.8737L92.7613 36.7915C91.5544 36.7915 90.4028 37.2061 89.2881 36.6349C88.5603 36.2572 87.6574 35.3174 87.2705 34.6264C86.165 32.6456 86.0544 29.771 86.5887 27.6336C86.6624 27.3572 86.7177 27.0623 86.7914 26.7767C86.8651 26.4911 87.0678 26.0857 87.1415 25.7264C87.1415 25.6619 86.3769 25.4685 86.4045 24.9433C86.4045 24.8327 86.5335 24.4181 86.598 24.3352C86.6624 24.2523 87.1323 23.9943 87.1876 23.9759C87.3442 23.9206 87.6482 24.0588 87.8785 23.893C88.1089 23.7271 88.4589 22.9809 88.6156 22.7782C88.7722 22.5755 88.8643 22.4465 88.9196 22.3912C88.9749 22.3359 89.3065 22.124 89.3249 22.1148C89.4447 22.0872 89.5645 22.1793 89.675 22.1793C89.8409 22.1793 89.9883 22.0503 90.2094 22.1148C90.4305 22.1793 90.6516 22.7505 91.0109 22.5847C91.6097 22.1885 92.3375 21.9121 92.9363 21.5344C94.1248 20.7789 95.3132 19.8484 96.7136 19.443C96.8241 19.4061 96.9531 19.4983 96.9715 19.4798C96.99 19.4614 96.9715 19.3785 97.0176 19.3509C97.0913 19.3048 97.1927 19.3509 97.2756 19.2679C97.3585 19.185 97.4138 18.9455 97.4782 18.9086C97.5427 18.8718 97.7086 18.8994 97.8191 18.8441C98.6667 18.448 99.4406 18.0518 100.353 17.757C101.265 17.4621 101.108 17.4345 101.486 17.5635C101.864 17.6925 102.204 17.9689 102.37 18.3835C102.536 18.7981 102.61 18.6691 102.711 18.8533C102.969 19.3048 102.951 20.0511 103.116 20.5394C103.282 21.0277 103.476 20.9355 103.577 21.1474C104.001 22.0503 103.835 23.4047 103.559 24.3352C103.282 25.2658 102.886 25.8646 102.812 26.3345C102.739 26.8044 102.877 26.6201 102.859 26.7307C102.398 30.2501 100.085 33.2629 97.165 35.3358C96.3911 35.8886 95.4054 36.4138 94.4104 36.4322L94.3735 36.4414ZM98.0126 20.6407C97.9573 20.6407 97.9573 20.7236 98.0126 20.7236C98.0679 20.7236 98.0679 20.6407 98.0126 20.6407ZM97.8283 20.7236C97.7731 20.7236 97.7731 20.8065 97.8283 20.8065C97.8836 20.8065 97.8836 20.7236 97.8283 20.7236ZM97.4138 20.9816L97.6901 20.8526L97.6441 20.8065L97.4138 20.8895V20.9724V20.9816ZM101.007 21.9398H100.546C100.988 22.5663 100.786 23.2665 100.611 23.9575C100.436 24.6485 100.113 24.713 100.776 25.1552L100.822 23.46L101.007 21.9398ZM106.673 31.7519C106.617 31.7519 106.617 31.8348 106.673 31.8348C106.728 31.8348 106.728 31.7519 106.673 31.7519ZM94.9263 33.9262L94.1432 33.6959L93.0838 34.2763L93.7379 34.2303L94.9263 33.9354V33.9262ZM92.9916 34.2763C92.2454 34.2948 91.5084 34.5527 90.8266 34.1381L89.8593 34.4145C90.1909 34.7001 90.7345 34.4882 91.103 34.479C91.6466 34.4606 92.1993 34.4422 92.7429 34.4329L92.9916 34.2855V34.2763ZM92.3467 54.3336C91.9322 54.3428 91.4715 54.223 91.0569 54.2875C89.2973 54.5639 86.6532 55.7616 85.4832 57.0331C84.3132 58.3045 85.0594 60.5709 85.6122 61.9437C85.7504 62.2846 86.0176 62.4689 85.8978 62.9388L86.082 62.8466C86.082 62.9388 86.0913 63.0217 86.1373 63.1046C86.2847 63.3994 86.8928 64.3944 87.0954 64.6156C87.6482 65.2144 88.9564 65.5461 89.7395 65.8778C90.1909 66.062 90.6792 66.4121 91.1306 66.5688C92.6323 67.0939 94.005 67.0571 95.5436 67.0294C97.0821 67.0018 96.2253 67.0847 96.7504 66.9557C97.856 66.6793 98.9062 66.5319 99.9749 66.0805C101.044 65.629 100.565 65.5277 100.924 65.887C100.998 65.2697 101.79 64.9933 102.26 64.5879C102.73 64.1825 102.499 64.3115 102.637 64.1549C102.776 63.9983 102.822 64.0812 102.868 64.0075C102.951 63.8785 103.126 62.9111 103.135 62.7084C103.199 61.7595 102.766 60.5986 102.324 59.751C102.066 59.2627 101.781 58.7928 101.44 58.415C101.099 58.0373 100.721 57.3647 100.371 57.0791C99.717 56.5448 97.6533 55.7893 96.8057 55.5774C96.2529 55.4392 95.9397 55.4944 95.4699 55.4484C95 55.4023 94.4288 55.1628 94.3828 55.2088C94.4657 56.4618 94.6499 57.724 94.567 58.9955C94.4841 60.2669 94.4565 59.9813 94.3551 60.359C94.2538 60.7368 94.134 60.8197 93.9037 61.1053C93.8668 61.0224 93.5352 61.1882 93.4799 61.2251C93.4246 61.2619 93.5168 61.4094 93.3693 61.3725L93.1851 60.7644L93.2772 61.2804H93.0008V60.9303L92.835 60.9763L92.8903 60.8566L92.1625 60.5341C92.2362 60.2577 92.2362 59.9721 92.2822 59.6957C92.5955 57.9452 92.3467 56.3513 92.2822 54.6192C92.2822 54.5178 92.3467 54.4349 92.3467 54.3336ZM126.452 5.93636C126.618 6.05613 127.862 6.30489 128.129 6.21276L128.24 6.39702C128.774 6.09298 129.179 6.48915 129.622 6.56286C130.497 6.70106 131.031 6.70106 131.925 6.95903C132.818 7.217 133.998 7.33677 135.085 7.58553C136.172 7.83429 135.794 7.73294 136.052 7.80665C136.31 7.88035 137.047 8.11069 137.185 8.22124C137.443 8.41472 137.655 8.96752 137.876 9.22549C137.904 9.50189 137.545 9.98098 137.535 10.1745C137.526 10.3679 137.922 10.976 137.941 11.4182C137.959 11.7776 137.554 12.9108 137.388 13.2885C136.946 14.2559 136.098 15.297 135.684 16.2828C134.799 18.3558 134.237 20.567 133.426 22.6676C132.717 24.5011 131.768 26.2239 131.004 28.0297C130.478 29.2735 130.11 30.5818 129.594 31.8256C128.903 32.5903 128.102 32.8114 127.042 32.7101C126.056 32.6179 124.37 31.6229 123.458 31.1346C122.546 30.6463 123.007 30.7569 122.841 30.6739C122.675 30.591 122.463 30.6187 122.316 30.4713C122.224 30.4528 121.984 30.5081 121.892 30.545C121.8 30.5818 121.671 30.849 121.395 30.8766C121.118 30.9043 121.22 30.7845 121.137 30.7569C121.054 30.7292 120.943 30.7569 120.869 30.72C120.796 30.6832 120.814 30.5265 120.768 30.4436C120.722 30.3607 120.575 30.4436 120.492 30.3699C120.114 30.0659 120.234 29.8171 120.261 29.4117C119.948 29.4117 119.663 29.2275 119.368 29.163C118.603 29.0063 117.083 28.7299 116.346 28.7207C115.609 28.7115 115.904 28.9695 115.876 28.9695C115.535 29.0432 115.627 28.7944 115.333 28.8037L115.231 28.5365C114.347 28.4536 113.361 28.2969 112.495 28.085C111.629 27.8731 111.657 27.6981 111.196 27.7626C111.049 27.6981 110.864 27.2743 110.837 27.2558C110.699 27.1545 110.496 27.3295 110.487 26.9334C110.477 26.5372 110.395 26.2332 110.533 25.6711C110.837 24.4826 111.233 23.2941 111.546 22.1148C112.228 19.5351 112.882 16.9646 113.877 14.4955C114.448 13.0951 115.434 11.6486 116.033 10.2758C116.632 8.90303 117.415 6.76555 118.216 5.05189C118.741 4.95975 118.658 4.54516 118.926 4.21348C119.091 4.21348 119.313 4.21348 119.451 4.2964C119.589 4.37932 119.773 4.74785 119.921 4.73864C120.243 4.76628 120.289 4.48066 120.473 4.2964C120.547 4.25033 120.455 4.55437 120.658 4.47145C120.86 4.38853 120.685 4.13977 120.704 4.13056C120.869 4.17663 121.026 4.00158 121.118 3.99236C121.21 3.98315 121.975 4.02922 122.132 4.04764C122.896 4.14899 125.282 5.87187 125.614 5.77052C125.946 5.66917 125.9 5.58626 126.268 5.70603C126.637 5.8258 126.388 5.89951 126.434 5.93636H126.452ZM120.492 4.73864C120.436 4.73864 120.436 4.82155 120.492 4.82155C120.547 4.82155 120.547 4.73864 120.492 4.73864ZM120.612 5.80737C120.455 5.72445 120.003 5.6876 119.801 5.61389C120.003 6.0377 119.644 5.88108 119.543 5.97321C119.442 6.06534 119.23 7.17093 119.064 7.34599C119.276 7.38284 119.534 7.40127 119.727 7.45655C120.169 7.58553 120.823 7.85272 121.247 7.93563C121.671 8.01855 121.68 7.88957 121.864 7.95406L121.818 8.12911C122.067 8.09226 122.224 7.99091 122.491 8.06462C122.758 8.13833 122.629 8.17518 122.721 8.19361C122.979 8.27652 123.246 8.16597 123.302 8.56214C123.652 8.38708 123.514 8.65427 123.845 8.73719C123.818 8.46079 124.361 7.93563 124.177 7.69609C123.707 7.42891 123.283 7.0788 122.804 6.81162C122.086 6.40623 121.284 6.16669 120.602 5.80737H120.612ZM128.921 6.56286H128.737V6.64578H128.921V6.56286ZM135.269 10.0547C134.541 9.87042 133.786 9.75064 133.049 9.58481C130.994 9.11493 129.133 8.67269 127.033 8.47922C126.637 8.44236 126.194 8.34102 125.789 8.30416L125.522 9.11493L125.881 9.47425L125.605 9.60323L125.789 9.8612H125.513C125.706 10.1284 125.457 9.9994 125.421 10.0363C125.236 10.2205 125.743 10.1745 125.605 10.3864C124.665 9.94412 124.684 11.0866 124.223 11.5564L124.407 11.6025V11.6854C124.076 11.6486 124.205 12.0632 124.112 12.1922C124.02 12.3211 123.947 12.2474 123.864 12.3488C123.633 12.6344 123.246 13.7953 123.025 13.8966C122.804 13.998 122.896 13.8229 122.841 13.8966C123.136 14.0993 122.915 14.1177 122.823 14.3112C122.565 14.8271 122.5 14.9101 122.15 15.3247C121.8 15.7393 122.049 15.9327 122.003 16.0433C121.957 16.1539 121.855 16.0986 121.828 16.1631C121.689 16.4395 121.782 16.8356 121.275 16.7988C121.422 17.0107 121.33 17.195 121.229 17.4069C121.127 17.6188 120.28 18.9086 120.354 18.9731C120.713 19.0468 121.155 19.185 121.514 19.2311C122.463 19.3601 123.431 19.3877 124.37 19.6641L126.563 19.8576L126.71 20.1063C126.858 20.1524 126.959 19.9589 127.033 19.9589C127.107 19.9589 127.411 20.2261 127.632 20.1063L127.447 20.3643C127.696 20.4012 127.687 20.3643 127.779 20.1893C129.152 20.309 130.055 21.0185 131.086 21.7555C132.118 22.4926 131.179 21.8753 131.317 21.8384C131.298 21.6265 131.363 21.516 131.584 21.4791C131.464 20.825 131.962 20.0326 132.192 19.4061C132.441 18.7428 132.616 18.0979 132.883 17.4529C133.611 15.7116 134.311 13.8505 135.324 12.2014C136.338 10.5522 135.555 12.0171 135.601 11.9434C135.647 11.8697 135.545 11.7499 135.555 11.6486C135.573 11.5012 135.665 11.3814 135.647 11.2063C135.628 11.0313 135.481 10.9484 135.426 10.7917C135.352 10.543 135.334 10.285 135.26 10.0363L135.269 10.0547ZM130.073 8.65427C130.018 8.65427 130.018 8.73719 130.073 8.73719C130.128 8.73719 130.128 8.65427 130.073 8.65427ZM118.52 8.90303L118.557 8.82932C118.649 8.69112 118.502 8.75561 118.465 8.82932C118.373 9.00437 118.318 9.20706 118.235 9.39133C118.318 9.52031 118.465 9.53874 118.603 9.57559C119.331 9.77829 120.252 9.83356 121.026 9.99019C121.514 10.0823 121.607 10.11 122.132 10.1652C122.657 10.2205 123.062 10.543 123.219 10.0086C123.375 9.47425 123.108 9.88884 122.988 9.87963C122.592 9.87042 122.205 9.81514 121.809 9.76907L118.529 8.91224L118.52 8.90303ZM122.104 12.0355C120.805 11.9065 119.552 11.3353 118.225 11.5564L117.405 11.2524L116.576 12.8187L116.3 12.5607L116.484 12.9108H116.208C116.153 13.0582 116.346 13.1135 116.355 13.2148C116.383 13.4267 116.014 13.8321 116.355 13.9427C116.917 14.1269 117.894 13.9887 118.456 14.2744C118.806 14.0901 118.972 14.3573 119.202 14.3941C119.672 14.477 120.308 14.3204 120.814 14.4402L120.98 14.3757C121.035 14.0901 120.98 13.786 121.321 13.6939L121.275 13.4728L121.459 13.5189C121.395 12.9476 121.892 12.533 122.104 12.0447V12.0355ZM115.996 15.6287C115.802 15.4997 115.6 15.4076 115.388 15.3339C115.342 15.5918 115.268 15.8867 115.176 16.1354C115.01 16.6145 114.715 17.1397 114.577 17.6556C114.439 18.1716 114.476 18.0426 114.503 18.1992C114.559 18.2729 115.121 18.3374 115.259 18.3466C115.397 18.3558 115.535 18.2637 115.701 18.2821C115.931 18.3098 116.42 18.6506 116.816 18.6322C117.212 18.6138 117.009 18.5124 117.166 18.4848C117.442 18.4295 117.636 18.7151 117.829 18.7244C118.023 18.7336 118.161 18.6414 118.336 18.6783L119.764 16.3842L119.801 16.117C119.239 15.9419 118.677 15.9604 118.096 15.942C117.516 15.9235 117.838 15.859 117.728 15.859C117.47 15.859 116.945 16.1446 116.641 16.0986C116.337 16.0525 116.217 15.8498 116.088 15.7577C115.959 15.6656 116.014 15.6379 115.987 15.6195L115.996 15.6287ZM114.872 16.2921C114.817 16.2921 114.817 16.375 114.872 16.375C114.927 16.375 114.927 16.2921 114.872 16.2921ZM117.498 20.3735L114.089 19.6825C114.098 20.2353 113.868 20.7236 113.739 21.2211C113.545 21.9951 113.426 22.8519 113.241 23.6166C113.057 24.3813 112.679 25.1184 112.716 25.9291C112.946 25.966 113.14 26.0765 113.352 26.1594C113.564 26.2424 113.693 26.1226 113.776 26.3806C114.236 26.1963 114.642 26.3806 115.102 26.4635C115.038 26.0581 115.333 25.7449 115.443 25.4408C116.051 23.8285 116.567 22.1609 117.332 20.6223C118.096 19.0837 117.525 20.4012 117.498 20.3827V20.3735ZM115.333 19.7654C115.277 19.7654 115.277 19.8484 115.333 19.8484C115.388 19.8484 115.388 19.7654 115.333 19.7654ZM116.991 20.0326C116.936 20.0326 116.936 20.1156 116.991 20.1156C117.046 20.1156 117.046 20.0326 116.991 20.0326ZM127.355 20.2906H127.171V20.3735H127.355V20.2906ZM123.117 21.3317L119.248 20.7236C119.257 20.871 119.248 21.0185 119.202 21.1659C119.064 21.6173 118.649 22.253 118.465 22.7229C118.106 23.6258 117.728 24.5656 117.405 25.4592C117.083 26.3529 117.184 26.2516 117.037 26.6385C117.203 26.6385 117.35 26.7491 117.498 26.7767C118.253 26.9057 119.055 26.9241 119.828 27.0992C120.602 27.2743 120.952 27.4954 121.008 27.4217C121.164 26.703 121.413 26.0028 121.671 25.3118C122.058 24.2799 122.473 23.2849 122.804 22.253C122.841 22.124 123.182 21.3778 123.127 21.3409L123.117 21.3317ZM127.447 21.9398C126.618 21.9674 125.909 21.4975 125.052 21.6818C125.264 22.1148 124.923 22.0964 124.684 22.253C124.462 22.3912 124.002 24.197 123.854 24.6024C123.578 25.3303 123.071 26.1963 122.924 26.9426C122.869 27.2098 123.081 26.9426 123.237 26.9886C123.375 27.2558 123.532 27.2282 123.735 27.3756L123.292 28.6747C123.311 28.7576 124.306 29.2827 124.453 29.3196C124.601 29.3564 124.665 29.0985 124.711 28.9787C124.96 28.4259 125.107 27.8086 125.356 27.2466C125.826 26.1871 126.609 24.9433 126.941 23.8838C127.143 23.2573 127.189 22.5663 127.42 21.949L127.447 21.9398ZM129.926 25.579C129.935 25.5698 129.861 25.4224 129.907 25.2658C130.036 24.7775 130.377 24.197 130.58 23.7271C130.091 23.2849 129.585 22.8887 129.014 22.5479C128.866 22.9256 128.894 23.3126 128.802 23.6995C128.341 25.6343 127.254 27.4309 126.535 29.292L126.609 30.3607L127.65 30.4436L127.761 30.3699C127.945 29.8263 128.138 29.292 128.35 28.7576C128.581 28.1772 128.774 27.4954 129.106 26.9518C129.364 26.528 129.382 26.6754 129.52 26.1318C129.649 25.6159 129.732 25.7817 129.907 25.579H129.926ZM115.793 28.7115C115.738 28.7115 115.738 28.7944 115.793 28.7944C115.849 28.7944 115.849 28.7115 115.793 28.7115ZM128.184 32.36H128V32.4429H128.184V32.36ZM145.781 2.39847H145.689V2.22342H145.781V2.39847Z" fill="black"/>
<g clip-path="url(#clip0_110_217)">
<path d="M272.868 27.9326C272.947 30.0188 272.136 31.3194 271.439 32.044C270.498 33.0216 269.156 33.5803 267.77 33.5803V31.8345C268.694 31.8345 269.574 31.4678 270.184 30.8306C270.846 30.141 271.177 29.1634 271.134 27.9937L272.877 27.9238L272.868 27.9326Z" fill="black"/>
<path d="M305.034 32.097V41.1666C313.531 43.9861 315.266 55.8489 315.266 62.5616V69.2743H277.6V62.5616C277.6 52.5581 280.31 44.2916 289.478 41.2626V38.4431H284.528C282.69 38.4431 281.208 36.9504 281.208 35.1173V33.4937C282.454 33.3977 283.631 32.8565 284.485 31.9748C285.182 31.2503 285.992 29.9497 285.914 27.8634L284.171 27.9245C284.215 29.0855 283.883 30.0719 283.221 30.7615C282.698 31.3114 281.975 31.6344 281.199 31.7304V29.0157C281.199 28.4657 280.825 27.9856 280.293 27.846L278.158 27.296C277.548 27.1389 277.234 26.4755 277.487 25.9081L281.13 17.7377C281.121 15.7125 281.356 13.7397 281.818 11.8892H312.233C314.464 18.9685 312.346 27.4444 305.034 32.097ZM285.165 15.7387C284.162 15.7387 283.343 16.5592 283.343 17.5631C283.343 18.5669 284.162 19.3875 285.165 19.3875C286.167 19.3875 286.986 18.5669 286.986 17.5631C286.986 16.5592 286.167 15.7387 285.165 15.7387Z" fill="black"/>
<path d="M298.454 0.191982C304.93 1.13473 309.418 5.14138 311.588 10.1432H282.341C284.641 3.5265 290.175 -1.01263 298.454 0.191982Z" fill="black"/>
<path d="M267.674 17.7284L264.031 25.8988C263.778 26.4662 264.101 27.1384 264.702 27.2868L266.837 27.8367C267.369 27.9764 267.744 28.4565 267.744 29.0064V35.108C267.744 36.9499 269.234 38.4338 271.064 38.4338H276.014V41.2533C266.846 44.2823 264.136 52.7845 264.136 62.5523V69.265H250.68V62.5523C250.68 52.5488 253.39 44.2823 262.558 41.2533V38.4338H257.608C255.769 38.4338 254.288 36.9411 254.288 35.108V33.5542C255.525 33.4495 256.693 32.917 257.539 32.0354C258.236 31.3109 259.046 30.0102 258.968 27.924L257.225 27.9938C257.268 29.1548 256.937 30.1412 256.275 30.8308C255.752 31.372 255.046 31.7037 254.279 31.791V29.0064C254.279 28.4565 253.904 27.9764 253.373 27.8367L251.238 27.2868C250.628 27.1296 250.314 26.4662 250.567 25.8988L254.209 17.7284C254.201 15.7032 254.436 13.7305 254.898 11.8799H268.362C267.9 13.7305 267.656 15.6945 267.665 17.7284H267.674ZM258.244 15.7381C257.242 15.7381 256.423 16.5587 256.423 17.5625C256.423 18.5664 257.242 19.3869 258.244 19.3869C259.247 19.3869 260.066 18.5664 260.066 17.5625C260.066 16.5587 259.247 15.7381 258.244 15.7381Z" fill="black"/>
<path d="M246 11.0165C246 10.5344 246.391 10.1436 246.873 10.1436H255.421C255.22 10.7109 255.046 11.2958 254.898 11.8894H246.873C246.391 11.8894 246 11.4986 246 11.0165Z" fill="black"/>
<path d="M271.7 15.7383C272.702 15.7383 273.522 16.5588 273.522 17.5627C273.522 18.5665 272.702 19.387 271.7 19.387C270.698 19.387 269.879 18.5665 269.879 17.5627C269.879 16.5588 270.698 15.7383 271.7 15.7383Z" fill="black"/>
<path d="M271.535 0.191982C273.164 0.427668 274.654 0.864123 276.023 1.4577C272.624 3.18606 270.21 6.31981 268.876 10.1432H255.421C257.722 3.5265 263.255 -1.01263 271.535 0.191982Z" fill="black"/>
<path d="M282.341 10.1436C282.14 10.7109 281.966 11.2958 281.818 11.8894H268.362C268.51 11.2958 268.676 10.7109 268.876 10.1436H282.341Z" fill="black"/>
</g>
<defs>
<clipPath id="clip0_110_217">
<rect width="69.2654" height="69.2654" fill="white" transform="matrix(-1 0 0 1 315.265 0)"/>
</clipPath>
</defs>
</svg>
