<svg xmlns="http://www.w3.org/2000/svg" width="543" height="103" viewBox="0 0 543 103" fill="none">
  <path d="M79.7622 47.5415C79.5914 47.5415 79.4847 47.4348 79.442 47.2213L71.8852 3.22538C71.8425 3.0546 71.9065 2.96921 72.0773 2.96921H79.2499C79.4206 2.96921 79.5274 3.0546 79.5701 3.22538L83.6687 32.1717L87.8953 3.22538C87.938 3.0546 88.0661 2.96921 88.2796 2.96921H94.0433C94.214 2.96921 94.3208 3.0546 94.3635 3.22538L98.5261 32.1717L102.689 3.22538C102.731 3.0546 102.838 2.96921 103.009 2.96921H110.117C110.331 2.96921 110.416 3.0546 110.374 3.22538L102.753 47.2213C102.71 47.3067 102.646 47.3921 102.561 47.4775C102.475 47.5202 102.433 47.5415 102.433 47.5415H94.6837C94.5556 47.5415 94.4488 47.4348 94.3635 47.2213L91.0974 24.2307L87.8313 47.2213C87.7886 47.4348 87.6819 47.5415 87.5111 47.5415H79.7622ZM115.683 47.5415C115.512 47.5415 115.427 47.4348 115.427 47.2213L115.491 3.22538C115.491 3.0546 115.598 2.96921 115.811 2.96921H122.92C123.133 2.96921 123.24 3.0546 123.24 3.22538L123.176 20.6444H132.782V3.22538C132.782 3.0546 132.867 2.96921 133.038 2.96921H140.147C140.36 2.96921 140.467 3.0546 140.467 3.22538L140.595 47.2213C140.595 47.4348 140.488 47.5415 140.275 47.5415H133.102C132.889 47.5415 132.782 47.4348 132.782 47.2213V28.3934H123.176V47.2213C123.176 47.4348 123.09 47.5415 122.92 47.5415H115.683ZM144.925 47.2213L152.866 3.22538C152.908 3.0546 153.015 2.96921 153.186 2.96921H162.472C162.642 2.96921 162.749 3.0546 162.792 3.22538L170.413 47.2213C170.455 47.4348 170.37 47.5415 170.157 47.5415H163.048C162.877 47.5415 162.771 47.4348 162.728 47.2213L162.023 42.5463H153.314L152.609 47.2213C152.567 47.4348 152.46 47.5415 152.289 47.5415H145.181C145.01 47.5415 144.925 47.4348 144.925 47.2213ZM154.595 35.694H160.743L158.117 17.6986L157.733 15.3291L157.477 17.6986L154.595 35.694ZM179.052 47.5415C178.881 47.5415 178.796 47.4348 178.796 47.2213V10.7181H170.471C170.257 10.7181 170.151 10.6114 170.151 10.3979L170.215 3.22538C170.215 3.0546 170.3 2.96921 170.471 2.96921H194.806C195.02 2.96921 195.126 3.0546 195.126 3.22538V10.3979C195.126 10.6114 195.041 10.7181 194.87 10.7181H186.481L186.545 47.2213C186.545 47.4348 186.46 47.5415 186.289 47.5415H179.052ZM200.019 18.0188C199.848 18.0188 199.762 17.912 199.762 17.6986L200.787 3.22538C200.83 3.0546 200.936 2.96921 201.107 2.96921H207.447C207.661 2.96921 207.746 3.0546 207.703 3.22538L206.487 17.8266C206.487 17.9547 206.423 18.0188 206.294 18.0188H200.019ZM225.309 48.1819C223.004 48.1819 220.89 47.6055 218.969 46.4528C217.091 45.2574 215.575 43.6991 214.422 41.7778C213.312 39.8139 212.757 37.6579 212.757 35.3097V32.3639C212.757 32.1504 212.864 32.0437 213.077 32.0437H220.25C220.421 32.0437 220.506 32.1504 220.506 32.3639V35.3097C220.506 36.7186 220.976 37.9354 221.915 38.9601C222.854 39.942 223.986 40.433 225.309 40.433C226.633 40.433 227.764 39.9207 228.703 38.896C229.642 37.8714 230.112 36.6759 230.112 35.3097C230.112 33.7301 229.087 32.3639 227.038 31.2111C226.355 30.8269 225.288 30.2292 223.836 29.418C222.385 28.6068 221.018 27.8383 219.738 27.1125C217.389 25.7463 215.639 24.0386 214.486 21.9893C213.376 19.8973 212.821 17.5491 212.821 14.9448C212.821 12.554 213.397 10.4193 214.55 8.54075C215.703 6.61953 217.219 5.1039 219.097 3.99387C221.018 2.88383 223.089 2.32881 225.309 2.32881C227.572 2.32881 229.642 2.90517 231.521 4.05791C233.442 5.16794 234.958 6.68357 236.068 8.60479C237.221 10.4833 237.797 12.5967 237.797 14.9448V20.1961C237.797 20.3669 237.712 20.4523 237.541 20.4523H230.368C230.197 20.4523 230.112 20.3669 230.112 20.1961L230.048 14.9448C230.048 13.4505 229.578 12.2338 228.639 11.2945C227.7 10.3552 226.59 9.88561 225.309 9.88561C223.986 9.88561 222.854 10.3979 221.915 11.4226C220.976 12.4045 220.506 13.5786 220.506 14.9448C220.506 16.3537 220.805 17.5278 221.403 18.4671C222 19.4063 223.089 20.3029 224.669 21.1568C224.882 21.2848 225.288 21.5197 225.885 21.8612C226.526 22.1601 227.209 22.523 227.935 22.9499C228.661 23.3341 229.301 23.6757 229.856 23.9745C230.454 24.2734 230.817 24.4655 230.945 24.5509C233.079 25.7463 234.766 27.2193 236.004 28.9697C237.242 30.6775 237.861 32.7908 237.861 35.3097C237.861 37.7433 237.285 39.942 236.132 41.9059C235.022 43.8271 233.506 45.3641 231.585 46.5169C229.707 47.6269 227.615 48.1819 225.309 48.1819ZM253.706 47.2213L261.647 3.22538C261.69 3.0546 261.797 2.96921 261.967 2.96921H271.253C271.424 2.96921 271.531 3.0546 271.573 3.22538L279.194 47.2213C279.237 47.4348 279.152 47.5415 278.938 47.5415H271.83C271.659 47.5415 271.552 47.4348 271.509 47.2213L270.805 42.5463H262.095L261.391 47.2213C261.348 47.4348 261.242 47.5415 261.071 47.5415H253.962C253.791 47.5415 253.706 47.4348 253.706 47.2213ZM263.376 35.694H269.524L266.898 17.6986L266.514 15.3291L266.258 17.6986L263.376 35.694ZM294.902 48.1819C292.554 48.1819 290.419 47.6055 288.498 46.4528C286.619 45.2574 285.125 43.6777 284.015 41.7138C282.905 39.7499 282.35 37.5512 282.35 35.1176L282.414 15.1369C282.414 12.7888 282.947 10.6541 284.015 8.73287C285.125 6.76896 286.619 5.21064 288.498 4.05791C290.419 2.86248 292.554 2.26477 294.902 2.26477C297.25 2.26477 299.363 2.84114 301.242 3.99387C303.12 5.1466 304.615 6.70492 305.725 8.66883C306.835 10.5901 307.39 12.7461 307.39 15.1369V18.0828C307.39 18.2536 307.304 18.339 307.134 18.339H299.961C299.79 18.339 299.705 18.2536 299.705 18.0828V15.1369C299.705 13.728 299.235 12.5113 298.296 11.4866C297.399 10.462 296.268 9.94965 294.902 9.94965C293.365 9.94965 292.191 10.4833 291.38 11.5507C290.568 12.5753 290.163 13.7707 290.163 15.1369V35.1176C290.163 36.6973 290.611 37.9781 291.508 38.9601C292.447 39.942 293.578 40.433 294.902 40.433C296.268 40.433 297.399 39.8993 298.296 38.832C299.235 37.7219 299.705 36.4838 299.705 35.1176V32.1717C299.705 32.001 299.79 31.9156 299.961 31.9156H307.198C307.368 31.9156 307.454 32.001 307.454 32.1717V35.1176C307.454 37.5512 306.877 39.7499 305.725 41.7138C304.615 43.6777 303.12 45.2574 301.242 46.4528C299.363 47.6055 297.25 48.1819 294.902 48.1819ZM319.009 47.5415C318.838 47.5415 318.752 47.4348 318.752 47.2213V10.7181H310.427C310.214 10.7181 310.107 10.6114 310.107 10.3979L310.171 3.22538C310.171 3.0546 310.256 2.96921 310.427 2.96921H334.763C334.976 2.96921 335.083 3.0546 335.083 3.22538V10.3979C335.083 10.6114 334.997 10.7181 334.827 10.7181H326.437L326.501 47.2213C326.501 47.4348 326.416 47.5415 326.245 47.5415H319.009ZM351.31 48.1819C349.047 48.1819 346.955 47.6055 345.034 46.4528C343.113 45.2574 341.576 43.6777 340.423 41.7138C339.313 39.7499 338.758 37.5939 338.758 35.2457L338.886 3.22538C338.886 3.0546 338.972 2.96921 339.142 2.96921H346.315C346.486 2.96921 346.571 3.0546 346.571 3.22538V35.2457C346.571 36.6973 347.019 37.9354 347.916 38.9601C348.855 39.942 349.987 40.433 351.31 40.433C352.676 40.433 353.808 39.942 354.704 38.9601C355.643 37.9354 356.113 36.6973 356.113 35.2457V3.22538C356.113 3.0546 356.198 2.96921 356.369 2.96921H363.542C363.713 2.96921 363.798 3.0546 363.798 3.22538L363.926 35.2457C363.926 37.6366 363.35 39.8139 362.197 41.7778C361.087 43.7418 359.571 45.3001 357.65 46.4528C355.772 47.6055 353.658 48.1819 351.31 48.1819ZM367.086 47.2213L375.027 3.22538C375.069 3.0546 375.176 2.96921 375.347 2.96921H384.633C384.803 2.96921 384.91 3.0546 384.953 3.22538L392.574 47.2213C392.616 47.4348 392.531 47.5415 392.318 47.5415H385.209C385.038 47.5415 384.932 47.4348 384.889 47.2213L384.184 42.5463H375.475L374.77 47.2213C374.728 47.4348 374.621 47.5415 374.45 47.5415H367.342C367.171 47.5415 367.086 47.4348 367.086 47.2213ZM376.756 35.694H382.904L380.278 17.6986L379.894 15.3291L379.638 17.6986L376.756 35.694ZM398.13 47.5415C397.959 47.5415 397.874 47.4348 397.874 47.2213L397.938 3.28942C397.938 3.07595 398.044 2.96921 398.258 2.96921H405.366C405.58 2.96921 405.687 3.07595 405.687 3.28942L405.622 39.6645H418.815C419.028 39.6645 419.135 39.7712 419.135 39.9847V47.2213C419.135 47.4348 419.028 47.5415 418.815 47.5415H398.13ZM424.864 47.5415C424.693 47.5415 424.608 47.4348 424.608 47.2213L424.672 3.28942C424.672 3.07595 424.779 2.96921 424.992 2.96921H432.101C432.314 2.96921 432.421 3.07595 432.421 3.28942L432.357 39.6645H445.549C445.763 39.6645 445.87 39.7712 445.87 39.9847V47.2213C445.87 47.4348 445.763 47.5415 445.549 47.5415H424.864ZM452.107 47.5415C451.979 47.5415 451.915 47.4561 451.915 47.2853L451.979 29.0978L443.398 3.22538C443.355 3.0546 443.419 2.96921 443.59 2.96921H450.699C450.912 2.96921 451.04 3.0546 451.083 3.22538L455.822 20.4523L460.625 3.22538C460.668 3.0546 460.774 2.96921 460.945 2.96921H468.118C468.288 2.96921 468.352 3.0546 468.31 3.22538L459.664 28.8416L459.728 47.2853C459.728 47.4561 459.643 47.5415 459.472 47.5415H452.107ZM2.52119 99.5415C2.35041 99.5415 2.26503 99.4348 2.26503 99.2213L2.32907 55.2254C2.32907 55.0546 2.4358 54.9692 2.64927 54.9692H9.75778C9.97125 54.9692 10.078 55.0546 10.078 55.2254L10.0139 72.6444H19.62V55.2254C19.62 55.0546 19.7054 54.9692 19.8762 54.9692H26.9847C27.1982 54.9692 27.3049 55.0546 27.3049 55.2254L27.433 99.2213C27.433 99.4348 27.3263 99.5415 27.1128 99.5415H19.9402C19.7268 99.5415 19.62 99.4348 19.62 99.2213V80.3934H10.0139V99.2213C10.0139 99.4348 9.92856 99.5415 9.75778 99.5415H2.52119ZM31.7627 99.2213L39.7038 55.2254C39.7465 55.0546 39.8532 54.9692 40.024 54.9692H49.3099C49.4807 54.9692 49.5874 55.0546 49.6301 55.2254L57.2509 99.2213C57.2936 99.4348 57.2082 99.5415 56.9948 99.5415H49.8862C49.7155 99.5415 49.6087 99.4348 49.566 99.2213L48.8616 94.5463H40.1521L39.4476 99.2213C39.4049 99.4348 39.2982 99.5415 39.1274 99.5415H32.0189C31.8481 99.5415 31.7627 99.4348 31.7627 99.2213ZM41.4329 87.694H47.5808L44.9551 69.6986L44.5709 67.3291L44.3147 69.6986L41.4329 87.694ZM62.871 99.5415C62.6575 99.5415 62.5508 99.4348 62.5508 99.2213L62.6789 55.2254C62.6789 55.0546 62.7643 54.9692 62.935 54.9692H75.2308C79.1587 54.9692 82.254 56.1646 84.5167 58.5555C86.8222 60.9463 87.9749 64.1911 87.9749 68.2897C87.9749 71.3209 87.3772 73.9466 86.1818 76.1667C84.9864 78.3867 83.428 80.0945 81.5068 81.2899C79.5856 82.4853 77.4936 83.0831 75.2308 83.0831H70.3637V99.2213C70.3637 99.4348 70.257 99.5415 70.0435 99.5415H62.871ZM70.3637 75.3341H75.2308C76.597 75.3341 77.7711 74.6937 78.7531 73.4129C79.7777 72.0894 80.29 70.3817 80.29 68.2897C80.29 66.6246 79.8418 65.2584 78.9452 64.1911C78.0486 63.1237 76.8105 62.5901 75.2308 62.5901L70.3637 62.6541V75.3341ZM93.9207 99.5415C93.7072 99.5415 93.6005 99.4348 93.6005 99.2213L93.7286 55.2254C93.7286 55.0546 93.814 54.9692 93.9847 54.9692H106.281C110.208 54.9692 113.304 56.1646 115.566 58.5555C117.872 60.9463 119.025 64.1911 119.025 68.2897C119.025 71.3209 118.427 73.9466 117.231 76.1667C116.036 78.3867 114.478 80.0945 112.557 81.2899C110.635 82.4853 108.543 83.0831 106.281 83.0831H101.413V99.2213C101.413 99.4348 101.307 99.5415 101.093 99.5415H93.9207ZM101.413 75.3341H106.281C107.647 75.3341 108.821 74.6937 109.803 73.4129C110.827 72.0894 111.34 70.3817 111.34 68.2897C111.34 66.6246 110.891 65.2584 109.995 64.1911C109.098 63.1237 107.86 62.5901 106.281 62.5901L101.413 62.6541V75.3341ZM124.906 99.5415C124.736 99.5415 124.65 99.4348 124.65 99.2213L124.714 55.2254C124.714 55.0546 124.8 54.9692 124.97 54.9692H145.527C145.698 54.9692 145.784 55.0759 145.784 55.2894V62.462C145.784 62.6327 145.698 62.7181 145.527 62.7181H132.399V72.7085H145.527C145.698 72.7085 145.784 72.7939 145.784 72.9646L145.848 80.2012C145.848 80.372 145.762 80.4574 145.591 80.4574H132.399V91.6645H145.591C145.762 91.6645 145.848 91.7712 145.848 91.9847V99.2853C145.848 99.4561 145.762 99.5415 145.591 99.5415H124.906ZM153.399 99.5415C153.058 99.5415 152.887 99.3921 152.887 99.0932L152.823 55.4815C152.823 55.14 152.994 54.9692 153.335 54.9692H159.099L169.922 80.2012L169.602 55.4815C169.602 55.14 169.794 54.9692 170.178 54.9692H176.518C176.774 54.9692 176.902 55.14 176.902 55.4815L176.966 99.1573C176.966 99.4134 176.86 99.5415 176.646 99.5415H171.011L159.932 75.9745L160.38 99.0292C160.38 99.3707 160.188 99.5415 159.803 99.5415H153.399ZM184.13 99.5415C183.917 99.5415 183.81 99.4348 183.81 99.2213L183.874 55.2254C183.874 55.0546 183.96 54.9692 184.13 54.9692H191.303C191.474 54.9692 191.559 55.0546 191.559 55.2254L191.623 99.2213C191.623 99.4348 191.538 99.5415 191.367 99.5415H184.13ZM199.113 99.5415C198.772 99.5415 198.601 99.3921 198.601 99.0932L198.537 55.4815C198.537 55.14 198.708 54.9692 199.049 54.9692H204.813L215.636 80.2012L215.316 55.4815C215.316 55.14 215.508 54.9692 215.892 54.9692H222.232C222.488 54.9692 222.616 55.14 222.616 55.4815L222.68 99.1573C222.68 99.4134 222.574 99.5415 222.36 99.5415H216.725L205.646 75.9745L206.094 99.0292C206.094 99.3707 205.902 99.5415 205.518 99.5415H199.113ZM241.244 100.182C238.938 100.182 236.846 99.6055 234.968 98.4528C233.089 97.3001 231.574 95.7631 230.421 93.8419C229.311 91.878 228.756 89.7006 228.756 87.3097V67.0089C228.756 64.7034 229.311 62.5901 230.421 60.6688C231.574 58.7049 233.089 57.1466 234.968 55.9939C236.889 54.8411 238.981 54.2648 241.244 54.2648C243.592 54.2648 245.705 54.8411 247.584 55.9939C249.505 57.1039 251.021 58.6195 252.131 60.5408C253.241 62.462 253.796 64.618 253.796 67.0089V69.9547C253.796 70.1255 253.689 70.2109 253.475 70.2109H246.303C246.132 70.2109 246.047 70.1255 246.047 69.9547V67.5212C246.047 65.8988 245.577 64.554 244.638 63.4866C243.741 62.4193 242.61 61.8856 241.244 61.8856C240.006 61.8856 238.896 62.3979 237.914 63.4226C236.974 64.4472 236.505 65.6427 236.505 67.0089V87.3097C236.505 88.7186 236.974 89.9354 237.914 90.9601C238.853 91.942 239.963 92.433 241.244 92.433C242.61 92.433 243.741 91.942 244.638 90.9601C245.577 89.9781 246.047 88.7613 246.047 87.3097V84.1717H241.564C241.35 84.1717 241.244 84.065 241.244 83.8515V76.679C241.244 76.4655 241.35 76.3588 241.564 76.3588H253.539C253.71 76.3588 253.796 76.4655 253.796 76.679V87.3097C253.796 89.7006 253.219 91.878 252.067 93.8419C250.957 95.7631 249.462 97.3001 247.584 98.4528C245.705 99.6055 243.592 100.182 241.244 100.182ZM282.27 100.182C279.965 100.182 277.851 99.6055 275.93 98.4528C274.052 97.2574 272.536 95.6991 271.383 93.7778C270.231 91.8139 269.654 89.6579 269.654 87.3097L269.718 67.0089C269.718 64.6607 270.273 62.526 271.383 60.6048C272.536 58.6836 274.073 57.1466 275.994 55.9939C277.915 54.8411 280.007 54.2648 282.27 54.2648C284.576 54.2648 286.668 54.8411 288.546 55.9939C290.425 57.1466 291.919 58.6836 293.029 60.6048C294.182 62.526 294.758 64.6607 294.758 67.0089L294.822 87.3097C294.822 89.6579 294.246 91.8139 293.093 93.7778C291.983 95.6991 290.467 97.2574 288.546 98.4528C286.668 99.6055 284.576 100.182 282.27 100.182ZM282.27 92.433C283.551 92.433 284.661 91.9207 285.6 90.896C286.582 89.8287 287.073 88.6332 287.073 87.3097L287.009 67.0089C287.009 65.6 286.561 64.4045 285.664 63.4226C284.768 62.4406 283.636 61.9496 282.27 61.9496C280.947 61.9496 279.815 62.4406 278.876 63.4226C277.937 64.3618 277.467 65.5573 277.467 67.0089V87.3097C277.467 88.7186 277.937 89.9354 278.876 90.9601C279.815 91.942 280.947 92.433 282.27 92.433ZM313.131 100.182C310.868 100.182 308.776 99.6055 306.855 98.4528C304.934 97.2574 303.397 95.6777 302.244 93.7138C301.134 91.7499 300.579 89.5939 300.579 87.2457L300.707 55.2254C300.707 55.0546 300.792 54.9692 300.963 54.9692H308.136C308.306 54.9692 308.392 55.0546 308.392 55.2254V87.2457C308.392 88.6973 308.84 89.9354 309.737 90.9601C310.676 91.942 311.807 92.433 313.131 92.433C314.497 92.433 315.628 91.942 316.525 90.9601C317.464 89.9354 317.934 88.6973 317.934 87.2457V55.2254C317.934 55.0546 318.019 54.9692 318.19 54.9692H325.363C325.533 54.9692 325.619 55.0546 325.619 55.2254L325.747 87.2457C325.747 89.6366 325.17 91.8139 324.018 93.7778C322.908 95.7418 321.392 97.3001 319.471 98.4528C317.592 99.6055 315.479 100.182 313.131 100.182ZM338.488 99.5415C338.318 99.5415 338.232 99.4348 338.232 99.2213V62.7181H329.907C329.693 62.7181 329.587 62.6114 329.587 62.3979L329.651 55.2254C329.651 55.0546 329.736 54.9692 329.907 54.9692H354.242C354.456 54.9692 354.563 55.0546 354.563 55.2254V62.3979C354.563 62.6114 354.477 62.7181 354.306 62.7181H345.917L345.981 99.2213C345.981 99.4348 345.896 99.5415 345.725 99.5415H338.488ZM376.197 99.5415C376.027 99.5415 375.941 99.4348 375.941 99.2213V62.7181H367.616C367.402 62.7181 367.296 62.6114 367.296 62.3979L367.36 55.2254C367.36 55.0546 367.445 54.9692 367.616 54.9692H391.951C392.165 54.9692 392.272 55.0546 392.272 55.2254V62.3979C392.272 62.6114 392.186 62.7181 392.015 62.7181H383.626L383.69 99.2213C383.69 99.4348 383.605 99.5415 383.434 99.5415H376.197ZM396.972 99.5415C396.801 99.5415 396.715 99.4348 396.715 99.2213L396.779 55.2254C396.779 55.0546 396.886 54.9692 397.1 54.9692H404.208C404.422 54.9692 404.528 55.0546 404.528 55.2254L404.464 72.6444H414.07V55.2254C414.07 55.0546 414.156 54.9692 414.327 54.9692H421.435C421.649 54.9692 421.755 55.0546 421.755 55.2254L421.883 99.2213C421.883 99.4348 421.777 99.5415 421.563 99.5415H414.391C414.177 99.5415 414.07 99.4348 414.07 99.2213V80.3934H404.464V99.2213C404.464 99.4348 404.379 99.5415 404.208 99.5415H396.972ZM428.647 99.5415C428.476 99.5415 428.39 99.4348 428.39 99.2213L428.454 55.2254C428.454 55.0546 428.54 54.9692 428.711 54.9692H449.268C449.438 54.9692 449.524 55.0759 449.524 55.2894V62.462C449.524 62.6327 449.438 62.7181 449.268 62.7181H436.139V72.7085H449.268C449.438 72.7085 449.524 72.7939 449.524 72.9646L449.588 80.2012C449.588 80.372 449.503 80.4574 449.332 80.4574H436.139V91.6645H449.332C449.503 91.6645 449.588 91.7712 449.588 91.9847V99.2853C449.588 99.4561 449.503 99.5415 449.332 99.5415H428.647ZM456.819 99.5415C456.649 99.5415 456.563 99.4348 456.563 99.2213L456.691 55.2254C456.691 55.0546 456.777 54.9692 456.948 54.9692H469.884C472.189 54.9692 474.303 55.5456 476.224 56.6983C478.188 57.8084 479.746 59.324 480.899 61.2452C482.052 63.1237 482.628 65.2584 482.628 67.6493C482.628 69.2289 482.393 70.6592 481.923 71.94C481.454 73.1781 480.899 74.2454 480.258 75.142C479.618 75.9959 479.042 76.6363 478.529 77.0632C480.835 79.6249 481.987 82.6348 481.987 86.093L482.052 99.2213C482.052 99.4348 481.945 99.5415 481.731 99.5415H474.495C474.324 99.5415 474.239 99.4775 474.239 99.3494V86.093C474.239 84.556 473.684 83.2325 472.573 82.1224C471.506 80.9697 470.183 80.3934 468.603 80.3934H464.376L464.312 99.2213C464.312 99.4348 464.227 99.5415 464.056 99.5415H456.819ZM464.376 72.7085H469.884C471.207 72.7085 472.381 72.2175 473.406 71.2355C474.431 70.2536 474.943 69.0582 474.943 67.6493C474.943 66.2831 474.431 65.109 473.406 64.127C472.424 63.1451 471.25 62.6541 469.884 62.6541H464.376V72.7085ZM488.995 99.5415C488.824 99.5415 488.739 99.4348 488.739 99.2213L488.803 55.2254C488.803 55.0546 488.888 54.9692 489.059 54.9692H509.616C509.787 54.9692 509.872 55.0759 509.872 55.2894V62.462C509.872 62.6327 509.787 62.7181 509.616 62.7181H496.488V72.7085H509.616C509.787 72.7085 509.872 72.7939 509.872 72.9646L509.936 80.2012C509.936 80.372 509.851 80.4574 509.68 80.4574H496.488V91.6645H509.68C509.851 91.6645 509.936 91.7712 509.936 91.9847V99.2853C509.936 99.4561 509.851 99.5415 509.68 99.5415H488.995ZM524.212 87.758C523.999 87.758 523.892 87.6726 523.892 87.5019V84.0437C523.892 82.3359 524.276 80.6282 525.045 78.9204C525.856 77.17 526.945 75.6117 528.311 74.2454C529.592 72.9646 530.531 71.9827 531.129 71.2996C531.726 70.5738 532.111 69.912 532.281 69.3143C532.452 68.7166 532.538 68.0122 532.538 67.201C532.538 65.7067 532.089 64.4686 531.193 63.4866C530.296 62.462 529.165 61.9496 527.799 61.9496C526.432 61.9496 525.28 62.462 524.34 63.4866C523.444 64.4686 522.995 65.7067 522.995 67.201V71.8759C522.995 72.0467 522.91 72.1321 522.739 72.1321H515.503C515.332 72.1321 515.247 72.0467 515.247 71.8759V67.201C515.247 64.8101 515.802 62.6327 516.912 60.6688C518.064 58.7049 519.58 57.1466 521.458 55.9939C523.38 54.8411 525.493 54.2648 527.799 54.2648C530.104 54.2648 532.196 54.8411 534.074 55.9939C535.996 57.1466 537.511 58.7049 538.621 60.6688C539.731 62.6327 540.286 64.8101 540.286 67.201C540.286 68.6099 540.137 69.8693 539.838 70.9794C539.539 72.0467 538.984 73.1781 538.173 74.3735C537.362 75.5263 536.166 76.9778 534.587 78.7283C533.519 79.7956 532.751 80.7562 532.281 81.6101C531.854 82.464 531.641 83.4033 531.641 84.4279V87.5019C531.641 87.6726 531.534 87.758 531.321 87.758H524.212ZM524.212 99.5415C523.999 99.5415 523.892 99.4348 523.892 99.2213V92.1128C523.892 91.942 523.999 91.8566 524.212 91.8566H531.321C531.534 91.8566 531.641 91.942 531.641 92.1128V99.2213C531.641 99.4348 531.534 99.5415 531.321 99.5415H524.212Z" fill="black" stroke="black" stroke-width="2.5" stroke-linejoin="round"/>
</svg>
