<svg width="38" height="38" viewBox="0 0 38 38" fill="none" xmlns="http://www.w3.org/2000/svg">
<path d="M38 6.34789V31.6522C38 35.1642 35.1533 38 31.6521 38H6.34786C2.83581 38 0 35.1533 0 31.6522V6.34789C0 2.83583 2.84671 0 6.34786 0H31.6521C35.1642 0 38 2.84674 38 6.34789ZM31.0849 8.91104C31.0849 7.79852 30.1906 6.90415 29.0781 6.90415H8.90011C7.7876 6.90415 6.89324 7.79852 6.89324 8.91104V29.089C6.89324 30.2015 7.7876 31.0959 8.90011 31.0959H29.0781C30.1906 31.0959 31.0849 30.2015 31.0849 29.089V8.91104ZM13.8083 14.9753C13.8083 14.3318 14.3209 13.8192 14.9535 13.8192H23.0247C23.6573 13.8192 24.1699 14.3427 24.1699 14.9753V23.0247C24.1699 23.6682 23.6573 24.1808 23.0247 24.1808H14.9535C14.3209 24.1808 13.8083 23.6573 13.8083 23.0247V14.9753Z" fill="white"/>
</svg>
